<svg width="185" height="35" viewBox="0 0 185 35" fill="none" xmlns="http://www.w3.org/2000/svg">
<g clip-path="url(#clip0)">
<path d="M14.6461 34.9788C10.9819 35.093 7.42085 33.7576 4.73844 31.2634C3.49147 30.1027 2.50209 28.694 1.83412 27.1282C1.16614 25.5624 0.834401 23.8742 0.860294 22.1726C0.84872 19.8196 1.47734 17.5076 2.67907 15.4833C3.85364 13.4523 5.56812 11.7851 7.63291 10.666C9.78424 9.49427 12.2027 8.89808 14.6532 8.93541L14.6108 11.9445C13.2232 11.9005 11.8409 12.1354 10.5461 12.6353C9.25129 13.1353 8.07046 13.89 7.07383 14.8547C6.10879 15.7589 5.34345 16.8542 4.82677 18.0705C4.31008 19.2867 4.05343 20.5973 4.07322 21.9183C4.06943 23.7106 4.54588 25.4714 5.45322 27.0182C6.34535 28.5816 7.65647 29.8657 9.23937 30.7265C10.8937 31.6212 12.7507 32.076 14.632 32.0474L14.6461 34.9788Z" fill="#07598C"/>
<path d="M51.6086 21.7417C51.6086 25.1604 51.2099 27.7339 50.4126 29.4622C49.6483 31.1508 48.3901 32.5691 46.8033 33.5308C44.9343 34.4963 42.8606 35.0002 40.7561 35.0002C38.6516 35.0002 36.5778 34.4963 34.7089 33.5308C33.1038 32.5691 31.8357 31.1357 31.0784 29.4268C30.2787 27.6751 29.9178 25.2452 29.9178 21.7205H32.975C32.9104 23.506 33.1107 25.2912 33.5695 27.0182C33.9884 28.4882 34.9163 29.7622 36.1879 30.6135C37.5504 31.5174 39.1596 31.9788 40.795 31.9344C42.4039 31.9843 43.9887 31.5352 45.3313 30.6489C46.5381 29.8347 47.4413 28.6452 47.9002 27.2654C48.2187 26.3118 48.3815 24.8567 48.3815 21.7558" fill="#07598C"/>
<path d="M131.479 0H134.678V34.3643H131.479V0Z" fill="#07598C"/>
<path d="M174.252 17.6377C173.676 17.0063 173.349 16.1883 173.332 15.335C173.332 14.8805 173.432 14.4315 173.624 14.0193C173.816 13.607 174.095 13.2413 174.443 12.9475C175.163 12.2693 176.121 11.8992 177.111 11.9162C178.738 11.9162 180.416 12.7497 182.121 14.4026L184.173 12.2835C181.862 10.0515 179.562 8.9354 177.273 8.9354C176.376 8.90579 175.482 9.05551 174.643 9.37575C173.805 9.69598 173.039 10.1803 172.39 10.8002C171.758 11.4055 171.26 12.136 170.927 12.945C170.594 13.7539 170.435 14.6233 170.458 15.4975C170.452 16.2369 170.569 16.9721 170.805 17.6731L174.252 17.6377ZM180.274 25.443C180.856 26.1216 181.172 26.9869 181.166 27.8799C181.164 28.4316 181.042 28.9763 180.809 29.4763C180.576 29.9764 180.236 30.4198 179.814 30.776C178.912 31.5815 177.733 32.0069 176.523 31.9627C174.693 31.9627 172.961 31.0444 171.329 29.2079L169.319 31.4823C170.178 32.5844 171.286 33.4678 172.553 34.0605C173.833 34.6773 175.237 34.9962 176.658 34.9929C177.65 35.0203 178.638 34.8466 179.561 34.4824C180.484 34.1182 181.324 33.571 182.029 32.8739C182.719 32.2035 183.264 31.3985 183.629 30.509C183.995 29.6194 184.173 28.6644 184.152 27.7033C184.181 26.9153 184.041 26.1302 183.742 25.4006" fill="#07598C"/>
<path d="M123.935 21.7417C123.935 25.1604 123.536 27.7339 122.739 29.4622C121.974 31.1508 120.716 32.5691 119.129 33.5308C117.26 34.4963 115.187 35.0002 113.082 35.0002C110.978 35.0002 108.904 34.4963 107.035 33.5308C105.43 32.5691 104.162 31.1357 103.405 29.4268C102.605 27.6751 102.244 25.2452 102.244 21.7205H105.301C105.228 23.4925 105.417 25.2655 105.86 26.9829C106.279 28.4529 107.207 29.7269 108.479 30.5782C109.841 31.4821 111.45 31.9435 113.086 31.8991C114.695 31.949 116.28 31.4999 117.622 30.6135C118.829 29.7994 119.732 28.6098 120.191 27.2301C120.509 26.2765 120.672 24.8214 120.672 21.7205" fill="#07598C"/>
<path d="M163.587 21.7276C163.587 25.1463 163.186 27.7222 162.384 29.4551C161.621 31.1427 160.366 32.5609 158.781 33.5237C156.911 34.4893 154.836 34.9932 152.731 34.9932C150.625 34.9932 148.55 34.4893 146.68 33.5237C145.075 32.562 143.807 31.1286 143.049 29.4198C142.25 27.668 141.896 25.2381 141.896 21.7134H144.946C144.873 23.4831 145.061 25.2539 145.505 26.9687C145.928 28.4386 146.855 29.7136 148.124 30.5711C149.486 31.475 151.095 31.9364 152.731 31.892C154.34 31.9419 155.924 31.4928 157.267 30.6064C158.476 29.7931 159.382 28.6035 159.843 27.223C160.161 26.2624 160.317 24.8073 160.317 21.7134" fill="#07598C"/>
<path d="M79.2439 21.7134H76.031C76.0561 19.6269 75.7259 17.5513 75.0544 15.5752C74.6997 14.5295 74.0142 13.6271 73.1012 13.004C72.1315 12.3307 70.9696 11.9888 69.7892 12.0293C68.785 11.9736 67.7953 12.2878 67.0079 12.9122C66.1243 13.4836 65.4511 14.3266 65.0901 15.3138C64.7079 16.3098 64.5169 18.1393 64.5169 20.7952V21.6852H61.2544V20.7952C61.2544 17.6966 61.5729 15.3727 62.2098 13.8234C62.7771 12.3444 63.7911 11.0781 65.1113 10.1998C66.7254 9.30601 68.5532 8.86884 70.3978 8.93542C71.5764 8.92944 72.7432 9.17007 73.823 9.64177C74.8379 10.0609 75.7451 10.7032 76.4769 11.5207C76.9436 12.0711 77.3339 12.6817 77.6375 13.336C77.941 12.6963 78.329 12.1 78.791 11.5631C79.5228 10.7455 80.4299 10.1033 81.4449 9.68416C82.5244 9.21185 83.6914 8.9712 84.8701 8.97781C86.7146 8.91194 88.5422 9.34906 90.1565 10.2422C91.4711 11.1218 92.4819 12.3847 93.051 13.8587C93.6879 15.4127 94.0135 17.7366 94.0135 20.8375V21.7276H90.7439V20.8375C90.7439 18.1746 90.5528 16.3522 90.1778 15.3562C89.8114 14.3702 89.1396 13.5264 88.2599 12.9475C87.4681 12.3269 86.4768 12.0155 85.4716 12.0716C84.2942 12.0296 83.1348 12.3691 82.1667 13.0394C81.251 13.6628 80.5649 14.5683 80.2135 15.6176C79.5368 17.5779 79.204 19.6401 79.2298 21.7134H76.031" fill="#07598C"/>
</g>
<defs>
<clipPath id="clip0">
<rect width="183.377" height="35" fill="white" transform="translate(0.824585)"/>
</clipPath>
</defs>
</svg>
