<?xml version="1.0" encoding="utf-8"?>
<!-- Generator: Adobe Illustrator 23.1.1, SVG Export Plug-In . SVG Version: 6.00 Build 0)  -->
<svg version="1.1" id="Reticle" xmlns="http://www.w3.org/2000/svg" xmlns:xlink="http://www.w3.org/1999/xlink" x="0px" y="0px"
	 viewBox="0 0 390.7 415.6" style="enable-background:new 0 0 390.7 415.6;" xml:space="preserve">
<style type="text/css">
	.st0{fill:none;}
	.st1{fill:#FFFFFF;}
	.st2{fill:none;stroke:#FFFFFF;stroke-width:2.6167;stroke-miterlimit:10;}
</style>
<g>
	<g>
		<path class="st0" d="M74,274.2c8.1,3.2,16.6,5,24.3,5c27.1,0,53.4-21.9,53.4-49c0-19,0.5-43.6,0.5-43.6V26.7
			c-71.3,18.5-124,83.3-124,160.4c0,17.7,2.8,34.8,8,50.8C46,252,58.5,266.3,74,274.2z"/>
		<g>
			<path class="st0" d="M330.1,184.7h-41.4c0,35.8,35.1,58.6,60.8,60c6.6-17.9,10.3-37.3,10.3-57.5c0-47.1-19.7-89.5-51.2-119.7
				c16.7,18,28.5,42.8,28.5,77.1C337.1,158.6,334.6,172.1,330.1,184.7z"/>
			<path class="st0" d="M247.3,229.9c-6.8-13.4-9.9-33.3-10.9-47.4l45,1.9c9.2-12,14.6-27,14.6-43.2c0-35.4-25.8-64.8-59.7-70.3
				v275.9l-37.8,6.1c51.4-1.4,96.9-26.1,126.4-64C292.5,282.4,263.3,261.7,247.3,229.9z"/>
			<path class="st1" d="M195.8,353.2l2.7-0.4c-0.9,0-1.8,0.1-2.7,0.1V353.2z"/>
		</g>
	</g>
	<g>
		<path class="st2" d="M288.7,203.7"/>
	</g>
	<rect x="83.1" y="285.4" width="41.8" height="3.4"/>
	<path class="st1" d="M194.6,19.3c-91,0-165.3,72.8-167.8,163.3h-0.1v3.3c0,0.5,0,0.9,0,1.4c0,44.1,17.1,84.2,44.9,114.2
		c5.1,5.8,11,11.3,17.9,16.7c28.8,23.2,65.3,37.1,105.1,37.1c92.6,0,167.9-75.3,167.9-167.9S287.2,19.3,194.6,19.3z M358,182.6
		h-27.1c4-11.9,6.2-24.6,6.2-37.8c0-25.7-6.6-46.1-17-62.3C342.9,109.8,357,144.6,358,182.6z M236.4,71.1
		c33.8,5.6,59.7,34.9,59.7,70.3c0,16.3-5.5,29.1-14.6,41.1l-4.4,0v-19.2h-2.6v19.2l-6.1,0h-6.5v-19.2h-2.6v19.2h-12.8v-19.2h-2.6
		v19.2h-7.4V71.1z M152.2,29.3v153.3h-6.9v-19.2h-2.6v19.2h-12.8v-19.2h-2.6v19.2h-12.6v-19.2h-2.6v19.2h-81
		C33.2,109.1,83.9,47.6,152.2,29.3z M39.7,240c-5.6-16.5-8.8-34.3-8.8-52.7c0-0.1,0-0.2,0-0.3h81.1v19h2.6v-19h12.6v19h2.6v-19h12.8
		v19h2.6v-19h6.9c-0.1,2.5-0.5,10.6-0.5,28.3c0,34.9-18.1,60.8-53.1,60.8C63.9,276,50.2,256.9,39.7,240z M227.4,187h-31.6v54.8h18.8
		v3.4h-18.8v18.3h18.8v3.4h-18.8v18.6h18.8v3.4h-18.8v62c-0.4,0-0.9,0-1.3,0c-35.9,0-69.1-11.6-96.1-31.3
		c47.9-2.2,71-26.9,82.1-52.7h-7.8v-3.4h9.1c2.4-6.2,4.2-12.4,5.5-18.3h-14.6v-3.4h15.3c3.2-16.6,2.6-30.3,2.6-34.1V187h-31v0h0.3
		v-3.8h30.7v-50h-17.9v-3.4h17.9v-18.6h-17.9v-3.4h17.9V89.2h-17.9v-3.4h17.9V23.8c1.2,0,2.5-0.1,3.7-0.1c0.4,0,0.9,0,1.3,0v62.1
		h18.8v3.4h-18.8v18.6h18.8v3.4h-18.8v18.6h18.8v3.4h-18.8v50h29.9v3.8L227.4,187L227.4,187z M236.4,345.4V186.9h0.4
		c1.3,13.7,4.4,31.1,10.5,43.2c15.7,31.1,44,51.6,75.5,58.5C301.1,316,271,336.3,236.4,345.4z M288.8,186.9h69.4c0,0.1,0,0.2,0,0.3
		c0,20.3-3.7,39.7-10.5,57.6C322.6,242.5,290,220.7,288.8,186.9z"/>
</g>
</svg>
