<svg width="2431" height="471" viewBox="0 0 2431 471" fill="none" xmlns="http://www.w3.org/2000/svg">
<path d="M2289.95 440.916C2290.2 448.911 2287.3 456.682 2281.89 462.535C2279.37 465.256 2276.31 467.414 2272.91 468.872C2269.51 470.33 2265.84 471.053 2262.15 470.997C2257.04 471.022 2252.02 469.651 2247.62 467.028C2243.21 464.465 2239.59 460.724 2237.16 456.219C2234.62 451.525 2233.32 446.247 2233.4 440.9L2239.94 440.993C2239.84 444.021 2240.35 447.037 2241.44 449.862C2242.52 452.687 2244.16 455.264 2246.26 457.439C2248.22 459.545 2250.6 461.215 2253.24 462.342C2255.88 463.469 2258.73 464.029 2261.59 463.986C2265.49 463.994 2269.31 462.955 2272.67 460.975C2276.06 459.028 2278.85 456.167 2280.72 452.713C2282.66 449.104 2283.65 445.052 2283.59 440.947L2289.95 440.916Z" fill="black"/>
<path d="M2261.21 360.261C2268.63 360.261 2274.22 361.131 2277.98 362.871C2281.64 364.539 2284.72 367.284 2286.81 370.747C2288.91 374.825 2290 379.35 2290 383.942C2290 388.534 2288.91 393.059 2286.81 397.137C2284.72 400.64 2281.61 403.407 2277.9 405.059C2274.09 406.804 2268.82 407.592 2261.16 407.592L2261.16 400.921C2265.04 401.062 2268.92 400.624 2272.67 399.623C2275.86 398.709 2278.63 396.685 2280.48 393.91C2282.44 390.937 2283.44 387.426 2283.34 383.857C2283.45 380.346 2282.48 376.888 2280.55 373.959C2278.78 371.325 2276.2 369.355 2273.2 368.353C2271.13 367.658 2267.97 367.303 2261.24 367.303" fill="black"/>
<path d="M2214 185.982L2214 179.002L2288.62 179.002L2288.62 185.982L2214 185.982Z" fill="black"/>
<path d="M2252.3 92.6499C2250.93 93.9054 2249.15 94.6185 2247.3 94.6574C2246.31 94.6557 2245.34 94.438 2244.44 94.0193C2243.55 93.6007 2242.75 92.9912 2242.11 92.233C2240.64 90.6611 2239.84 88.5718 2239.88 86.4113C2239.88 82.8597 2241.69 79.1998 2245.27 75.4783L2240.67 71.0001C2235.83 76.0445 2233.4 81.0632 2233.4 86.0562C2233.34 88.0142 2233.66 89.9655 2234.36 91.7953C2235.05 93.625 2236.11 95.2964 2237.45 96.7112C2238.77 98.0909 2240.35 99.1786 2242.11 99.9046C2243.87 100.631 2245.75 100.979 2247.65 100.927C2249.26 100.941 2250.85 100.685 2252.38 100.17L2252.3 92.6499ZM2269.25 79.5087C2270.72 78.2398 2272.6 77.549 2274.54 77.563C2275.74 77.5666 2276.92 77.8322 2278.01 78.3415C2279.09 78.8507 2280.05 79.5915 2280.83 80.5124C2282.58 82.4803 2283.5 85.054 2283.4 87.693C2283.4 91.6874 2281.41 95.4655 2277.42 99.0275L2282.36 103.413C2284.75 101.538 2286.67 99.1201 2287.96 96.356C2289.3 93.5633 2289.99 90.5009 2289.98 87.3996C2290.04 85.2343 2289.67 83.0794 2288.88 81.0649C2288.09 79.0505 2286.9 77.2183 2285.38 75.679C2283.93 74.1728 2282.18 72.9842 2280.25 72.1872C2278.32 71.3902 2276.24 71.0019 2274.16 71.0464C2272.44 70.9832 2270.74 71.2885 2269.16 71.942" fill="black"/>
<path d="M2261.21 202.443C2268.63 202.443 2274.22 203.313 2277.98 205.053C2281.64 206.72 2284.72 209.466 2286.81 212.928C2288.91 217.007 2290 221.532 2290 226.124C2290 230.716 2288.91 235.241 2286.81 239.319C2284.72 242.821 2281.61 245.588 2277.9 247.241C2274.09 248.986 2268.82 249.773 2261.16 249.773L2261.16 243.102C2265.01 243.261 2268.86 242.85 2272.59 241.882C2275.78 240.968 2278.55 238.944 2280.4 236.169C2282.36 233.196 2283.36 229.684 2283.27 226.116C2283.38 222.605 2282.4 219.147 2280.48 216.218C2278.71 213.584 2276.12 211.613 2273.13 210.612C2271.06 209.917 2267.9 209.562 2261.16 209.562" fill="black"/>
<path d="M2261.18 115.921C2268.6 115.921 2274.2 116.796 2277.96 118.546C2281.62 120.21 2284.7 122.95 2286.79 126.406C2288.89 130.487 2289.99 135.015 2289.99 139.609C2289.99 144.204 2288.89 148.731 2286.79 152.812C2284.71 156.315 2281.59 159.082 2277.88 160.734C2274.08 162.479 2268.8 163.251 2261.15 163.251L2261.15 156.596C2264.99 156.756 2268.84 156.345 2272.56 155.376C2275.75 154.453 2278.52 152.431 2280.38 149.662C2282.35 146.689 2283.35 143.178 2283.25 139.609C2283.36 136.099 2282.38 132.641 2280.46 129.711C2278.69 127.073 2276.11 125.097 2273.11 124.09C2271.03 123.395 2267.87 123.055 2261.15 123.055" fill="black"/>
<path d="M2261.15 299.96L2261.15 306.971C2256.62 306.916 2252.11 307.637 2247.82 309.102C2245.55 309.876 2243.59 311.372 2242.24 313.364C2240.78 315.48 2240.03 318.015 2240.12 320.591C2240 322.782 2240.68 324.942 2242.04 326.66C2243.28 328.588 2245.11 330.057 2247.25 330.844C2249.42 331.678 2253.39 332.095 2259.16 332.095L2261.09 332.095L2261.09 339.214L2259.16 339.214C2252.43 339.214 2247.38 338.519 2244.02 337.129C2240.81 335.892 2238.06 333.679 2236.15 330.798C2234.21 327.276 2233.26 323.288 2233.4 319.263C2233.39 316.691 2233.91 314.145 2234.94 311.789C2235.85 309.574 2237.24 307.595 2239.02 305.998C2240.21 304.98 2241.54 304.128 2242.96 303.466C2241.57 302.803 2240.27 301.957 2239.11 300.949C2237.33 299.352 2235.94 297.372 2235.03 295.158C2234 292.802 2233.48 290.256 2233.49 287.684C2233.35 283.659 2234.3 279.671 2236.24 276.149C2238.15 273.28 2240.89 271.075 2244.09 269.833C2247.47 268.443 2252.51 267.733 2259.25 267.733L2261.18 267.733L2261.18 274.867L2259.25 274.867C2253.46 274.867 2249.51 275.284 2247.34 276.102C2245.2 276.902 2243.37 278.368 2242.11 280.287C2240.77 282.015 2240.09 284.178 2240.21 286.371C2240.12 288.94 2240.86 291.47 2242.31 293.583C2243.67 295.581 2245.63 297.078 2247.91 297.845C2252.17 299.321 2256.65 300.047 2261.15 299.991L2261.15 306.971" fill="black"/>
<path d="M2215.05 9.01562H2217.55L2225.16 26.7812L2232.91 9.01562H2235.41L2225.41 32H2224.91L2215.05 9.01562ZM2250.97 26.3594L2252.81 27.3281C2252.21 28.5156 2251.51 29.474 2250.72 30.2031C2249.93 30.9323 2249.04 31.4896 2248.05 31.875C2247.06 32.25 2245.94 32.4375 2244.69 32.4375C2241.92 32.4375 2239.75 31.5312 2238.19 29.7188C2236.62 27.8958 2235.84 25.8385 2235.84 23.5469C2235.84 21.3906 2236.51 19.4688 2237.83 17.7812C2239.51 15.6354 2241.75 14.5625 2244.56 14.5625C2247.46 14.5625 2249.77 15.6615 2251.5 17.8594C2252.73 19.4115 2253.35 21.349 2253.38 23.6719H2238.09C2238.14 25.651 2238.77 27.276 2239.98 28.5469C2241.2 29.8073 2242.71 30.4375 2244.5 30.4375C2245.36 30.4375 2246.2 30.2865 2247.02 29.9844C2247.84 29.6823 2248.54 29.2812 2249.11 28.7812C2249.68 28.2812 2250.3 27.474 2250.97 26.3594ZM2250.97 21.7812C2250.68 20.6146 2250.25 19.6823 2249.69 18.9844C2249.14 18.2865 2248.4 17.724 2247.48 17.2969C2246.57 16.8698 2245.6 16.6562 2244.59 16.6562C2242.93 16.6562 2241.49 17.1927 2240.3 18.2656C2239.42 19.0469 2238.76 20.2188 2238.31 21.7812H2250.97ZM2257.64 15H2259.88V17.4844C2260.54 16.5052 2261.24 15.776 2261.98 15.2969C2262.72 14.8073 2263.49 14.5625 2264.3 14.5625C2264.9 14.5625 2265.55 14.7552 2266.23 15.1406L2265.09 16.9844C2264.64 16.7865 2264.25 16.6875 2263.94 16.6875C2263.21 16.6875 2262.51 16.9896 2261.83 17.5938C2261.15 18.1875 2260.64 19.1146 2260.28 20.375C2260.01 21.3438 2259.88 23.3021 2259.88 26.25V32H2257.64V15ZM2271 8.6875H2273.2V15H2276.67V16.875H2273.2V32H2271V16.875H2268.02V15H2271V8.6875ZM2281.7 8C2282.2 8 2282.63 8.17708 2282.98 8.53125C2283.34 8.88542 2283.52 9.3125 2283.52 9.8125C2283.52 10.3021 2283.34 10.724 2282.98 11.0781C2282.63 11.4323 2282.2 11.6094 2281.7 11.6094C2281.21 11.6094 2280.79 11.4323 2280.44 11.0781C2280.08 10.724 2279.91 10.3021 2279.91 9.8125C2279.91 9.3125 2280.08 8.88542 2280.44 8.53125C2280.79 8.17708 2281.21 8 2281.7 8ZM2280.61 15H2282.81V32H2280.61V15ZM2304.84 18.5312L2303.11 19.6094C2301.61 17.6198 2299.56 16.625 2296.97 16.625C2294.9 16.625 2293.17 17.2917 2291.8 18.625C2290.43 19.9583 2289.75 21.5781 2289.75 23.4844C2289.75 24.724 2290.06 25.8906 2290.69 26.9844C2291.32 28.0781 2292.19 28.9271 2293.28 29.5312C2294.39 30.1354 2295.62 30.4375 2296.98 30.4375C2299.48 30.4375 2301.53 29.4427 2303.11 27.4531L2304.84 28.5938C2304.03 29.8125 2302.94 30.7604 2301.56 31.4375C2300.2 32.1042 2298.64 32.4375 2296.89 32.4375C2294.2 32.4375 2291.97 31.5833 2290.2 29.875C2288.43 28.1667 2287.55 26.0885 2287.55 23.6406C2287.55 21.9948 2287.96 20.4688 2288.78 19.0625C2289.61 17.6458 2290.76 16.5417 2292.2 15.75C2293.65 14.9583 2295.27 14.5625 2297.06 14.5625C2298.19 14.5625 2299.27 14.7344 2300.31 15.0781C2301.36 15.4219 2302.26 15.8698 2302.98 16.4219C2303.71 16.974 2304.33 17.6771 2304.84 18.5312ZM2327 15V32H2324.84V29.0781C2323.93 30.1927 2322.9 31.0312 2321.75 31.5938C2320.61 32.1562 2319.37 32.4375 2318.02 32.4375C2315.61 32.4375 2313.55 31.5677 2311.84 29.8281C2310.15 28.0781 2309.3 25.9531 2309.3 23.4531C2309.3 21.0052 2310.16 18.9115 2311.88 17.1719C2313.59 15.4323 2315.66 14.5625 2318.08 14.5625C2319.47 14.5625 2320.73 14.8594 2321.86 15.4531C2322.99 16.0469 2323.99 16.9375 2324.84 18.125V15H2327ZM2318.25 16.6719C2317.03 16.6719 2315.91 16.974 2314.88 17.5781C2313.84 18.1719 2313.02 19.0104 2312.41 20.0938C2311.8 21.1771 2311.5 22.3229 2311.5 23.5312C2311.5 24.7292 2311.81 25.875 2312.42 26.9688C2313.04 28.0625 2313.86 28.9167 2314.89 29.5312C2315.93 30.1354 2317.05 30.4375 2318.23 30.4375C2319.43 30.4375 2320.57 30.1354 2321.64 29.5312C2322.71 28.9271 2323.54 28.1094 2324.11 27.0781C2324.69 26.0469 2324.98 24.8854 2324.98 23.5938C2324.98 21.625 2324.33 19.9792 2323.03 18.6562C2321.74 17.3333 2320.15 16.6719 2318.25 16.6719ZM2332.61 8.4375H2334.8V32H2332.61V8.4375ZM2350.58 9.01562H2352.89V29.7812H2361.72V32H2350.58V9.01562ZM2374.05 14.5625C2376.66 14.5625 2378.83 15.5104 2380.55 17.4062C2382.11 19.1354 2382.89 21.1823 2382.89 23.5469C2382.89 25.9219 2382.06 28 2380.41 29.7812C2378.76 31.5521 2376.64 32.4375 2374.05 32.4375C2371.44 32.4375 2369.31 31.5521 2367.66 29.7812C2366.01 28 2365.19 25.9219 2365.19 23.5469C2365.19 21.1927 2365.97 19.151 2367.53 17.4219C2369.25 15.5156 2371.42 14.5625 2374.05 14.5625ZM2374.05 16.7031C2372.23 16.7031 2370.68 17.375 2369.38 18.7188C2368.07 20.0625 2367.42 21.6875 2367.42 23.5938C2367.42 24.8229 2367.72 25.9688 2368.31 27.0312C2368.91 28.0938 2369.71 28.9167 2370.72 29.5C2371.73 30.0729 2372.84 30.3594 2374.05 30.3594C2375.26 30.3594 2376.36 30.0729 2377.38 29.5C2378.39 28.9167 2379.19 28.0938 2379.78 27.0312C2380.38 25.9688 2380.67 24.8229 2380.67 23.5938C2380.67 21.6875 2380.02 20.0625 2378.7 18.7188C2377.4 17.375 2375.85 16.7031 2374.05 16.7031ZM2402.61 15H2404.81V28.5469C2404.81 30.9323 2404.6 32.6771 2404.19 33.7812C2403.61 35.3438 2402.62 36.5469 2401.2 37.3906C2399.79 38.2344 2398.08 38.6562 2396.09 38.6562C2394.64 38.6562 2393.32 38.4479 2392.16 38.0312C2391 37.625 2390.06 37.0729 2389.33 36.375C2388.6 35.6875 2387.93 34.6771 2387.31 33.3438H2389.69C2390.33 34.4688 2391.17 35.3021 2392.19 35.8438C2393.21 36.3854 2394.47 36.6562 2395.98 36.6562C2397.47 36.6562 2398.73 36.375 2399.75 35.8125C2400.78 35.2604 2401.52 34.5625 2401.95 33.7188C2402.39 32.875 2402.61 31.5156 2402.61 29.6406V28.7656C2401.79 29.8073 2400.78 30.6094 2399.59 31.1719C2398.41 31.724 2397.15 32 2395.81 32C2394.25 32 2392.78 31.6146 2391.41 30.8438C2390.03 30.0625 2388.97 29.0156 2388.22 27.7031C2387.47 26.3906 2387.09 24.9479 2387.09 23.375C2387.09 21.8021 2387.48 20.3385 2388.27 18.9844C2389.05 17.6198 2390.12 16.5417 2391.5 15.75C2392.89 14.9583 2394.34 14.5625 2395.88 14.5625C2397.15 14.5625 2398.33 14.8281 2399.42 15.3594C2400.53 15.8802 2401.59 16.7448 2402.61 17.9531V15ZM2396.16 16.6719C2394.92 16.6719 2393.77 16.974 2392.7 17.5781C2391.64 18.1719 2390.81 19 2390.2 20.0625C2389.6 21.1146 2389.3 22.2552 2389.3 23.4844C2389.3 25.349 2389.92 26.8906 2391.17 28.1094C2392.42 29.3281 2394.04 29.9375 2396.03 29.9375C2398.04 29.9375 2399.66 29.3333 2400.88 28.125C2402.1 26.9167 2402.72 25.3281 2402.72 23.3594C2402.72 22.0781 2402.44 20.9375 2401.88 19.9375C2401.31 18.9271 2400.52 18.1302 2399.48 17.5469C2398.45 16.9635 2397.34 16.6719 2396.16 16.6719ZM2418.55 14.5625C2421.16 14.5625 2423.33 15.5104 2425.05 17.4062C2426.61 19.1354 2427.39 21.1823 2427.39 23.5469C2427.39 25.9219 2426.56 28 2424.91 29.7812C2423.26 31.5521 2421.14 32.4375 2418.55 32.4375C2415.94 32.4375 2413.81 31.5521 2412.16 29.7812C2410.51 28 2409.69 25.9219 2409.69 23.5469C2409.69 21.1927 2410.47 19.151 2412.03 17.4219C2413.75 15.5156 2415.92 14.5625 2418.55 14.5625ZM2418.55 16.7031C2416.73 16.7031 2415.18 17.375 2413.88 18.7188C2412.57 20.0625 2411.92 21.6875 2411.92 23.5938C2411.92 24.8229 2412.22 25.9688 2412.81 27.0312C2413.41 28.0938 2414.21 28.9167 2415.22 29.5C2416.23 30.0729 2417.34 30.3594 2418.55 30.3594C2419.76 30.3594 2420.86 30.0729 2421.88 29.5C2422.89 28.9167 2423.69 28.0938 2424.28 27.0312C2424.88 25.9688 2425.17 24.8229 2425.17 23.5938C2425.17 21.6875 2424.52 20.0625 2423.2 18.7188C2421.9 17.375 2420.35 16.7031 2418.55 16.7031Z" fill="black"/>
<path d="M1716.47 10.0156H1718.77V33H1716.47V10.0156ZM1733.23 17.8594L1731.83 19.3125C1730.66 18.1771 1729.52 17.6094 1728.41 17.6094C1727.7 17.6094 1727.09 17.8438 1726.58 18.3125C1726.08 18.7812 1725.83 19.3281 1725.83 19.9531C1725.83 20.5052 1726.04 21.0312 1726.45 21.5312C1726.87 22.0417 1727.74 22.6406 1729.08 23.3281C1730.7 24.1719 1731.81 24.9844 1732.39 25.7656C1732.96 26.5573 1733.25 27.4479 1733.25 28.4375C1733.25 29.8333 1732.76 31.0156 1731.78 31.9844C1730.8 32.9531 1729.58 33.4375 1728.11 33.4375C1727.13 33.4375 1726.19 33.224 1725.3 32.7969C1724.41 32.3698 1723.68 31.7812 1723.09 31.0312L1724.47 29.4688C1725.58 30.7292 1726.77 31.3594 1728.02 31.3594C1728.89 31.3594 1729.64 31.0781 1730.25 30.5156C1730.86 29.9531 1731.17 29.2917 1731.17 28.5312C1731.17 27.9062 1730.97 27.349 1730.56 26.8594C1730.16 26.3802 1729.24 25.776 1727.81 25.0469C1726.28 24.2552 1725.24 23.474 1724.69 22.7031C1724.14 21.9323 1723.86 21.0521 1723.86 20.0625C1723.86 18.7708 1724.3 17.6979 1725.17 16.8438C1726.06 15.9896 1727.17 15.5625 1728.52 15.5625C1730.08 15.5625 1731.65 16.3281 1733.23 17.8594ZM1746.17 15.5625C1748.79 15.5625 1750.95 16.5104 1752.67 18.4062C1754.23 20.1354 1755.02 22.1823 1755.02 24.5469C1755.02 26.9219 1754.19 29 1752.53 30.7812C1750.89 32.5521 1748.77 33.4375 1746.17 33.4375C1743.57 33.4375 1741.44 32.5521 1739.78 30.7812C1738.14 29 1737.31 26.9219 1737.31 24.5469C1737.31 22.1927 1738.09 20.151 1739.66 18.4219C1741.38 16.5156 1743.55 15.5625 1746.17 15.5625ZM1746.17 17.7031C1744.36 17.7031 1742.8 18.375 1741.5 19.7188C1740.2 21.0625 1739.55 22.6875 1739.55 24.5938C1739.55 25.8229 1739.84 26.9688 1740.44 28.0312C1741.03 29.0938 1741.83 29.9167 1742.84 30.5C1743.85 31.0729 1744.96 31.3594 1746.17 31.3594C1747.38 31.3594 1748.49 31.0729 1749.5 30.5C1750.51 29.9167 1751.31 29.0938 1751.91 28.0312C1752.5 26.9688 1752.8 25.8229 1752.8 24.5938C1752.8 22.6875 1752.14 21.0625 1750.83 19.7188C1749.53 18.375 1747.97 17.7031 1746.17 17.7031ZM1759.77 9.4375H1761.95V33H1759.77V9.4375ZM1784.44 16V33H1782.28V30.0781C1781.36 31.1927 1780.33 32.0312 1779.19 32.5938C1778.05 33.1562 1776.81 33.4375 1775.45 33.4375C1773.05 33.4375 1770.99 32.5677 1769.28 30.8281C1767.58 29.0781 1766.73 26.9531 1766.73 24.4531C1766.73 22.0052 1767.59 19.9115 1769.31 18.1719C1771.03 16.4323 1773.1 15.5625 1775.52 15.5625C1776.91 15.5625 1778.17 15.8594 1779.3 16.4531C1780.43 17.0469 1781.43 17.9375 1782.28 19.125V16H1784.44ZM1775.69 17.6719C1774.47 17.6719 1773.34 17.974 1772.31 18.5781C1771.28 19.1719 1770.46 20.0104 1769.84 21.0938C1769.24 22.1771 1768.94 23.3229 1768.94 24.5312C1768.94 25.7292 1769.24 26.875 1769.86 27.9688C1770.47 29.0625 1771.3 29.9167 1772.33 30.5312C1773.37 31.1354 1774.48 31.4375 1775.67 31.4375C1776.87 31.4375 1778.01 31.1354 1779.08 30.5312C1780.15 29.9271 1780.97 29.1094 1781.55 28.0781C1782.13 27.0469 1782.42 25.8854 1782.42 24.5938C1782.42 22.625 1781.77 20.9792 1780.47 19.6562C1779.18 18.3333 1777.58 17.6719 1775.69 17.6719ZM1792.28 9.6875H1794.48V16H1797.95V17.875H1794.48V33H1792.28V17.875H1789.3V16H1792.28V9.6875ZM1816.53 27.3594L1818.38 28.3281C1817.77 29.5156 1817.07 30.474 1816.28 31.2031C1815.49 31.9323 1814.6 32.4896 1813.61 32.875C1812.62 33.25 1811.5 33.4375 1810.25 33.4375C1807.48 33.4375 1805.31 32.5312 1803.75 30.7188C1802.19 28.8958 1801.41 26.8385 1801.41 24.5469C1801.41 22.3906 1802.07 20.4688 1803.39 18.7812C1805.07 16.6354 1807.31 15.5625 1810.12 15.5625C1813.02 15.5625 1815.33 16.6615 1817.06 18.8594C1818.29 20.4115 1818.92 22.349 1818.94 24.6719H1803.66C1803.7 26.651 1804.33 28.276 1805.55 29.5469C1806.77 30.8073 1808.27 31.4375 1810.06 31.4375C1810.93 31.4375 1811.77 31.2865 1812.58 30.9844C1813.4 30.6823 1814.1 30.2812 1814.67 29.7812C1815.24 29.2812 1815.86 28.474 1816.53 27.3594ZM1816.53 22.7812C1816.24 21.6146 1815.81 20.6823 1815.25 19.9844C1814.7 19.2865 1813.96 18.724 1813.05 18.2969C1812.13 17.8698 1811.17 17.6562 1810.16 17.6562C1808.49 17.6562 1807.06 18.1927 1805.86 19.2656C1804.98 20.0469 1804.32 21.2188 1803.88 22.7812H1816.53ZM1841 9.4375V33H1838.84V30.0781C1837.93 31.1927 1836.9 32.0312 1835.75 32.5938C1834.61 33.1562 1833.37 33.4375 1832.02 33.4375C1829.61 33.4375 1827.55 32.5677 1825.84 30.8281C1824.15 29.0781 1823.3 26.9531 1823.3 24.4531C1823.3 22.0052 1824.16 19.9115 1825.88 18.1719C1827.59 16.4323 1829.66 15.5625 1832.08 15.5625C1833.47 15.5625 1834.73 15.8594 1835.86 16.4531C1836.99 17.0469 1837.99 17.9375 1838.84 19.125V9.4375H1841ZM1832.25 17.6719C1831.03 17.6719 1829.91 17.974 1828.88 18.5781C1827.84 19.1719 1827.02 20.0104 1826.41 21.0938C1825.8 22.1771 1825.5 23.3229 1825.5 24.5312C1825.5 25.7292 1825.81 26.875 1826.42 27.9688C1827.04 29.0625 1827.86 29.9167 1828.89 30.5312C1829.93 31.1354 1831.05 31.4375 1832.23 31.4375C1833.43 31.4375 1834.57 31.1354 1835.64 30.5312C1836.71 29.9271 1837.54 29.1094 1838.11 28.0781C1838.69 27.0469 1838.98 25.8854 1838.98 24.5938C1838.98 22.625 1838.33 20.9792 1837.03 19.6562C1835.74 18.3333 1834.15 17.6719 1832.25 17.6719ZM1857.2 10.0156H1859.52V30.7812H1868.34V33H1857.2V10.0156ZM1880.67 15.5625C1883.29 15.5625 1885.45 16.5104 1887.17 18.4062C1888.73 20.1354 1889.52 22.1823 1889.52 24.5469C1889.52 26.9219 1888.69 29 1887.03 30.7812C1885.39 32.5521 1883.27 33.4375 1880.67 33.4375C1878.07 33.4375 1875.94 32.5521 1874.28 30.7812C1872.64 29 1871.81 26.9219 1871.81 24.5469C1871.81 22.1927 1872.59 20.151 1874.16 18.4219C1875.88 16.5156 1878.05 15.5625 1880.67 15.5625ZM1880.67 17.7031C1878.86 17.7031 1877.3 18.375 1876 19.7188C1874.7 21.0625 1874.05 22.6875 1874.05 24.5938C1874.05 25.8229 1874.34 26.9688 1874.94 28.0312C1875.53 29.0938 1876.33 29.9167 1877.34 30.5C1878.35 31.0729 1879.46 31.3594 1880.67 31.3594C1881.88 31.3594 1882.99 31.0729 1884 30.5C1885.01 29.9167 1885.81 29.0938 1886.41 28.0312C1887 26.9688 1887.3 25.8229 1887.3 24.5938C1887.3 22.6875 1886.64 21.0625 1885.33 19.7188C1884.03 18.375 1882.47 17.7031 1880.67 17.7031ZM1909.23 16H1911.44V29.5469C1911.44 31.9323 1911.23 33.6771 1910.81 34.7812C1910.24 36.3438 1909.24 37.5469 1907.83 38.3906C1906.41 39.2344 1904.71 39.6562 1902.72 39.6562C1901.26 39.6562 1899.95 39.4479 1898.78 39.0312C1897.62 38.625 1896.68 38.0729 1895.95 37.375C1895.22 36.6875 1894.55 35.6771 1893.94 34.3438H1896.31C1896.96 35.4688 1897.79 36.3021 1898.81 36.8438C1899.83 37.3854 1901.1 37.6562 1902.61 37.6562C1904.1 37.6562 1905.35 37.375 1906.38 36.8125C1907.41 36.2604 1908.14 35.5625 1908.58 34.7188C1909.02 33.875 1909.23 32.5156 1909.23 30.6406V29.7656C1908.41 30.8073 1907.41 31.6094 1906.22 32.1719C1905.03 32.724 1903.77 33 1902.44 33C1900.88 33 1899.41 32.6146 1898.03 31.8438C1896.66 31.0625 1895.59 30.0156 1894.84 28.7031C1894.09 27.3906 1893.72 25.9479 1893.72 24.375C1893.72 22.8021 1894.11 21.3385 1894.89 19.9844C1895.67 18.6198 1896.75 17.5417 1898.12 16.75C1899.51 15.9583 1900.97 15.5625 1902.5 15.5625C1903.77 15.5625 1904.95 15.8281 1906.05 16.3594C1907.15 16.8802 1908.21 17.7448 1909.23 18.9531V16ZM1902.78 17.6719C1901.54 17.6719 1900.39 17.974 1899.33 18.5781C1898.27 19.1719 1897.43 20 1896.83 21.0625C1896.22 22.1146 1895.92 23.2552 1895.92 24.4844C1895.92 26.349 1896.55 27.8906 1897.8 29.1094C1899.05 30.3281 1900.67 30.9375 1902.66 30.9375C1904.67 30.9375 1906.28 30.3333 1907.5 29.125C1908.73 27.9167 1909.34 26.3281 1909.34 24.3594C1909.34 23.0781 1909.06 21.9375 1908.5 20.9375C1907.94 19.9271 1907.14 19.1302 1906.11 18.5469C1905.08 17.9635 1903.97 17.6719 1902.78 17.6719ZM1925.17 15.5625C1927.79 15.5625 1929.95 16.5104 1931.67 18.4062C1933.23 20.1354 1934.02 22.1823 1934.02 24.5469C1934.02 26.9219 1933.19 29 1931.53 30.7812C1929.89 32.5521 1927.77 33.4375 1925.17 33.4375C1922.57 33.4375 1920.44 32.5521 1918.78 30.7812C1917.14 29 1916.31 26.9219 1916.31 24.5469C1916.31 22.1927 1917.09 20.151 1918.66 18.4219C1920.38 16.5156 1922.55 15.5625 1925.17 15.5625ZM1925.17 17.7031C1923.36 17.7031 1921.8 18.375 1920.5 19.7188C1919.2 21.0625 1918.55 22.6875 1918.55 24.5938C1918.55 25.8229 1918.84 26.9688 1919.44 28.0312C1920.03 29.0938 1920.83 29.9167 1921.84 30.5C1922.85 31.0729 1923.96 31.3594 1925.17 31.3594C1926.38 31.3594 1927.49 31.0729 1928.5 30.5C1929.51 29.9167 1930.31 29.0938 1930.91 28.0312C1931.5 26.9688 1931.8 25.8229 1931.8 24.5938C1931.8 22.6875 1931.14 21.0625 1929.83 19.7188C1928.53 18.375 1926.97 17.7031 1925.17 17.7031Z" fill="black"/>
<path d="M1744.08 183.954C1736.09 184.202 1728.32 181.302 1722.47 175.886C1719.74 173.366 1717.59 170.307 1716.13 166.907C1714.67 163.507 1713.95 159.841 1714 156.146C1713.98 151.037 1715.35 146.017 1717.97 141.621C1720.53 137.211 1724.28 133.59 1728.78 131.16C1733.48 128.616 1738.75 127.321 1744.1 127.403L1744.01 133.937C1740.98 133.841 1737.96 134.351 1735.14 135.437C1732.31 136.522 1729.74 138.161 1727.56 140.256C1725.46 142.219 1723.79 144.597 1722.66 147.239C1721.53 149.88 1720.97 152.725 1721.01 155.594C1721.01 159.486 1722.05 163.309 1724.03 166.668C1725.97 170.063 1728.83 172.851 1732.29 174.72C1735.9 176.663 1739.95 177.651 1744.05 177.589L1744.08 183.954Z" fill="black"/>
<path d="M1824.74 155.211C1824.74 162.634 1823.87 168.222 1822.13 171.975C1820.46 175.642 1817.72 178.722 1814.25 180.81C1810.18 182.906 1805.65 184 1801.06 184C1796.47 184 1791.94 182.906 1787.86 180.81C1784.36 178.721 1781.59 175.609 1779.94 171.898C1778.2 168.095 1777.41 162.818 1777.41 155.165H1784.08C1783.94 159.042 1784.38 162.918 1785.38 166.668C1786.29 169.86 1788.32 172.627 1791.09 174.475C1794.06 176.438 1797.57 177.44 1801.14 177.343C1804.65 177.452 1808.11 176.476 1811.04 174.552C1813.67 172.784 1815.65 170.201 1816.65 167.205C1817.34 165.134 1817.7 161.975 1817.7 155.241" fill="black"/>
<path d="M1999.02 108H2006V182.62H1999.02V108Z" fill="black"/>
<path d="M2092.35 146.299C2091.09 144.928 2090.38 143.152 2090.34 141.299C2090.34 140.312 2090.56 139.337 2090.98 138.442C2091.4 137.547 2092.01 136.753 2092.77 136.115C2094.34 134.642 2096.43 133.838 2098.59 133.875C2102.14 133.875 2105.8 135.685 2109.52 139.274L2114 134.673C2108.96 129.826 2103.94 127.403 2098.94 127.403C2096.99 127.338 2095.03 127.663 2093.2 128.359C2091.38 129.054 2089.7 130.106 2088.29 131.452C2086.91 132.766 2085.82 134.352 2085.1 136.109C2084.37 137.866 2084.02 139.753 2084.07 141.652C2084.06 143.257 2084.32 144.854 2084.83 146.376L2092.35 146.299ZM2105.49 163.247C2106.76 164.721 2107.45 166.6 2107.44 168.539C2107.43 169.737 2107.17 170.92 2106.66 172.006C2106.15 173.091 2105.41 174.054 2104.49 174.828C2102.52 176.577 2099.95 177.501 2097.31 177.405C2093.31 177.405 2089.53 175.411 2085.97 171.423L2081.59 176.362C2083.46 178.754 2085.88 180.673 2088.64 181.96C2091.44 183.299 2094.5 183.992 2097.6 183.985C2099.77 184.044 2101.92 183.667 2103.94 182.876C2105.95 182.085 2107.78 180.897 2109.32 179.383C2110.83 177.927 2112.02 176.179 2112.81 174.248C2113.61 172.316 2114 170.243 2113.95 168.156C2114.02 166.445 2113.71 164.74 2113.06 163.155" fill="black"/>
<path d="M1982.56 155.211C1982.56 162.634 1981.69 168.222 1979.95 171.975C1978.28 175.642 1975.53 178.722 1972.07 180.81C1967.99 182.906 1963.47 184 1958.88 184C1954.28 184 1949.76 182.906 1945.68 180.81C1942.18 178.721 1939.41 175.609 1937.76 171.898C1936.01 168.095 1935.23 162.818 1935.23 155.165H1941.9C1941.74 159.012 1942.15 162.862 1943.12 166.591C1944.03 169.783 1946.06 172.55 1948.83 174.398C1951.8 176.361 1955.32 177.363 1958.88 177.267C1962.39 177.375 1965.85 176.4 1968.78 174.475C1971.42 172.707 1973.39 170.124 1974.39 167.128C1975.08 165.058 1975.44 161.898 1975.44 155.165" fill="black"/>
<path d="M2069.08 155.18C2069.08 162.603 2068.2 168.197 2066.45 171.96C2064.79 175.624 2062.05 178.704 2058.59 180.794C2054.51 182.891 2049.99 183.985 2045.39 183.985C2040.8 183.985 2036.27 182.891 2032.19 180.794C2028.69 178.706 2025.92 175.594 2024.27 171.883C2022.52 168.079 2021.75 162.803 2021.75 155.149H2028.4C2028.24 158.992 2028.66 162.837 2029.62 166.561C2030.55 169.753 2032.57 172.521 2035.34 174.383C2038.31 176.346 2041.82 177.348 2045.39 177.251C2048.9 177.36 2052.36 176.384 2055.29 174.46C2057.93 172.694 2059.9 170.111 2060.91 167.113C2061.6 165.027 2061.94 161.867 2061.94 155.149" fill="black"/>
<path d="M1885.04 155.149H1878.03C1878.08 150.618 1877.36 146.111 1875.9 141.82C1875.12 139.55 1873.63 137.59 1871.64 136.237C1869.52 134.775 1866.98 134.033 1864.41 134.121C1862.22 134 1860.06 134.682 1858.34 136.038C1856.41 137.279 1854.94 139.109 1854.16 141.253C1853.32 143.415 1852.9 147.388 1852.9 153.155V155.088H1845.79V153.155C1845.79 146.427 1846.48 141.381 1847.87 138.016C1849.11 134.805 1851.32 132.055 1854.2 130.148C1857.72 128.207 1861.71 127.258 1865.74 127.403C1868.31 127.39 1870.86 127.912 1873.21 128.936C1875.43 129.847 1877.41 131.241 1879 133.016C1880.02 134.211 1880.87 135.537 1881.53 136.958C1882.2 135.569 1883.04 134.274 1884.05 133.108C1885.65 131.333 1887.63 129.939 1889.84 129.028C1892.2 128.003 1894.74 127.48 1897.32 127.495C1901.34 127.352 1905.33 128.301 1908.85 130.24C1911.72 132.15 1913.93 134.892 1915.17 138.093C1916.56 141.468 1917.27 146.514 1917.27 153.247V155.18H1910.13V153.247C1910.13 147.465 1909.72 143.508 1908.9 141.345C1908.1 139.204 1906.63 137.372 1904.71 136.115C1902.99 134.767 1900.82 134.091 1898.63 134.213C1896.06 134.121 1893.53 134.859 1891.42 136.314C1889.42 137.668 1887.92 139.634 1887.16 141.912C1885.68 146.169 1884.95 150.647 1885.01 155.149H1878.03" fill="black"/>
<rect x="1107" y="260" width="507" height="167" fill="black"/>
<path d="M1190.08 380.954C1182.09 381.202 1174.32 378.302 1168.47 372.886C1165.74 370.366 1163.59 367.307 1162.13 363.907C1160.67 360.507 1159.95 356.841 1160 353.146C1159.98 348.037 1161.35 343.017 1163.97 338.621C1166.53 334.211 1170.28 330.59 1174.78 328.16C1179.48 325.616 1184.75 324.321 1190.1 324.403L1190.01 330.937C1186.98 330.841 1183.96 331.351 1181.14 332.437C1178.31 333.522 1175.74 335.161 1173.56 337.256C1171.46 339.219 1169.79 341.597 1168.66 344.239C1167.53 346.88 1166.97 349.725 1167.01 352.594C1167.01 356.486 1168.05 360.309 1170.03 363.668C1171.97 367.063 1174.83 369.851 1178.29 371.72C1181.9 373.663 1185.95 374.651 1190.05 374.589L1190.08 380.954Z" fill="white"/>
<path d="M1270.74 352.211C1270.74 359.634 1269.87 365.222 1268.13 368.975C1266.46 372.642 1263.72 375.722 1260.25 377.81C1256.18 379.906 1251.65 381 1247.06 381C1242.47 381 1237.94 379.906 1233.86 377.81C1230.36 375.721 1227.59 372.609 1225.94 368.898C1224.2 365.095 1223.41 359.818 1223.41 352.165H1230.08C1229.94 356.042 1230.38 359.918 1231.38 363.668C1232.29 366.86 1234.32 369.627 1237.09 371.475C1240.06 373.438 1243.57 374.44 1247.14 374.343C1250.65 374.452 1254.11 373.476 1257.04 371.552C1259.67 369.784 1261.65 367.201 1262.65 364.205C1263.34 362.134 1263.7 358.975 1263.7 352.241" fill="white"/>
<path d="M1445.02 305H1452V379.62H1445.02V305Z" fill="white"/>
<path d="M1538.35 343.299C1537.09 341.928 1536.38 340.152 1536.34 338.299C1536.34 337.312 1536.56 336.337 1536.98 335.442C1537.4 334.547 1538.01 333.753 1538.77 333.115C1540.34 331.642 1542.43 330.838 1544.59 330.875C1548.14 330.875 1551.8 332.685 1555.52 336.274L1560 331.673C1554.96 326.826 1549.94 324.403 1544.94 324.403C1542.99 324.338 1541.03 324.663 1539.2 325.359C1537.38 326.054 1535.7 327.106 1534.29 328.452C1532.91 329.766 1531.82 331.352 1531.1 333.109C1530.37 334.866 1530.02 336.753 1530.07 338.652C1530.06 340.257 1530.32 341.854 1530.83 343.376L1538.35 343.299ZM1551.49 360.247C1552.76 361.721 1553.45 363.6 1553.44 365.539C1553.43 366.737 1553.17 367.92 1552.66 369.006C1552.15 370.091 1551.41 371.054 1550.49 371.828C1548.52 373.577 1545.95 374.501 1543.31 374.405C1539.31 374.405 1535.53 372.411 1531.97 368.423L1527.59 373.362C1529.46 375.754 1531.88 377.673 1534.64 378.96C1537.44 380.299 1540.5 380.992 1543.6 380.985C1545.77 381.044 1547.92 380.667 1549.94 379.876C1551.95 379.085 1553.78 377.897 1555.32 376.383C1556.83 374.927 1558.02 373.179 1558.81 371.248C1559.61 369.316 1560 367.243 1559.95 365.156C1560.02 363.445 1559.71 361.74 1559.06 360.155" fill="white"/>
<path d="M1428.56 352.211C1428.56 359.634 1427.69 365.222 1425.95 368.975C1424.28 372.642 1421.53 375.722 1418.07 377.81C1413.99 379.906 1409.47 381 1404.88 381C1400.28 381 1395.76 379.906 1391.68 377.81C1388.18 375.721 1385.41 372.609 1383.76 368.898C1382.01 365.095 1381.23 359.818 1381.23 352.165H1387.9C1387.74 356.012 1388.15 359.862 1389.12 363.591C1390.03 366.783 1392.06 369.55 1394.83 371.398C1397.8 373.361 1401.32 374.363 1404.88 374.267C1408.39 374.375 1411.85 373.4 1414.78 371.475C1417.42 369.707 1419.39 367.124 1420.39 364.128C1421.08 362.058 1421.44 358.898 1421.44 352.165" fill="white"/>
<path d="M1515.08 352.18C1515.08 359.603 1514.2 365.197 1512.45 368.96C1510.79 372.624 1508.05 375.704 1504.59 377.794C1500.51 379.891 1495.99 380.985 1491.39 380.985C1486.8 380.985 1482.27 379.891 1478.19 377.794C1474.69 375.706 1471.92 372.594 1470.27 368.883C1468.52 365.079 1467.75 359.803 1467.75 352.149H1474.4C1474.24 355.992 1474.66 359.837 1475.62 363.561C1476.55 366.753 1478.57 369.521 1481.34 371.383C1484.31 373.346 1487.82 374.348 1491.39 374.251C1494.9 374.36 1498.36 373.384 1501.29 371.46C1503.93 369.694 1505.9 367.111 1506.91 364.113C1507.6 362.027 1507.94 358.867 1507.94 352.149" fill="white"/>
<path d="M1331.04 352.149H1324.03C1324.08 347.618 1323.36 343.111 1321.9 338.82C1321.12 336.55 1319.63 334.59 1317.64 333.237C1315.52 331.775 1312.98 331.033 1310.41 331.121C1308.22 331 1306.06 331.682 1304.34 333.038C1302.41 334.279 1300.94 336.109 1300.16 338.253C1299.32 340.415 1298.9 344.388 1298.9 350.155V352.088H1291.79V350.155C1291.79 343.427 1292.48 338.381 1293.87 335.016C1295.11 331.805 1297.32 329.055 1300.2 327.148C1303.72 325.207 1307.71 324.258 1311.74 324.403C1314.31 324.39 1316.86 324.912 1319.21 325.936C1321.43 326.847 1323.41 328.241 1325 330.016C1326.02 331.211 1326.87 332.537 1327.53 333.958C1328.2 332.569 1329.04 331.274 1330.05 330.108C1331.65 328.333 1333.63 326.939 1335.84 326.028C1338.2 325.003 1340.74 324.48 1343.32 324.495C1347.34 324.352 1351.33 325.301 1354.85 327.24C1357.72 329.15 1359.93 331.892 1361.17 335.093C1362.56 338.468 1363.27 343.514 1363.27 350.247V352.18H1356.13V350.247C1356.13 344.465 1355.72 340.508 1354.9 338.345C1354.1 336.204 1352.63 334.372 1350.71 333.115C1348.99 331.767 1346.82 331.091 1344.63 331.213C1342.06 331.121 1339.53 331.859 1337.42 333.314C1335.42 334.668 1333.92 336.634 1333.16 338.912C1331.68 343.169 1330.95 347.647 1331.01 352.149H1324.03" fill="white"/>
<rect x="1107" y="63" width="507" height="167" fill="white"/>
<path d="M1190.08 183.954C1182.09 184.202 1174.32 181.302 1168.47 175.886C1165.74 173.366 1163.59 170.307 1162.13 166.907C1160.67 163.507 1159.95 159.841 1160 156.146C1159.98 151.037 1161.35 146.017 1163.97 141.621C1166.53 137.211 1170.28 133.59 1174.78 131.16C1179.48 128.616 1184.75 127.321 1190.1 127.403L1190.01 133.937C1186.98 133.841 1183.96 134.351 1181.14 135.437C1178.31 136.522 1175.74 138.161 1173.56 140.256C1171.46 142.219 1169.79 144.597 1168.66 147.239C1167.53 149.88 1166.97 152.725 1167.01 155.594C1167.01 159.486 1168.05 163.309 1170.03 166.668C1171.97 170.063 1174.83 172.851 1178.29 174.72C1181.9 176.663 1185.95 177.651 1190.05 177.589L1190.08 183.954Z" fill="black"/>
<path d="M1270.74 155.211C1270.74 162.634 1269.87 168.222 1268.13 171.975C1266.46 175.642 1263.72 178.722 1260.25 180.81C1256.18 182.906 1251.65 184 1247.06 184C1242.47 184 1237.94 182.906 1233.86 180.81C1230.36 178.721 1227.59 175.609 1225.94 171.898C1224.2 168.095 1223.41 162.818 1223.41 155.165H1230.08C1229.94 159.042 1230.38 162.918 1231.38 166.668C1232.29 169.86 1234.32 172.627 1237.09 174.475C1240.06 176.438 1243.57 177.44 1247.14 177.343C1250.65 177.452 1254.11 176.476 1257.04 174.552C1259.67 172.784 1261.65 170.201 1262.65 167.205C1263.34 165.134 1263.7 161.975 1263.7 155.241" fill="black"/>
<path d="M1445.02 108H1452V182.62H1445.02V108Z" fill="black"/>
<path d="M1538.35 146.299C1537.09 144.928 1536.38 143.152 1536.34 141.299C1536.34 140.312 1536.56 139.337 1536.98 138.442C1537.4 137.547 1538.01 136.753 1538.77 136.115C1540.34 134.642 1542.43 133.838 1544.59 133.875C1548.14 133.875 1551.8 135.685 1555.52 139.274L1560 134.673C1554.96 129.826 1549.94 127.403 1544.94 127.403C1542.99 127.338 1541.03 127.663 1539.2 128.359C1537.38 129.054 1535.7 130.106 1534.29 131.452C1532.91 132.766 1531.82 134.352 1531.1 136.109C1530.37 137.866 1530.02 139.753 1530.07 141.652C1530.06 143.257 1530.32 144.854 1530.83 146.376L1538.35 146.299ZM1551.49 163.247C1552.76 164.721 1553.45 166.6 1553.44 168.539C1553.43 169.737 1553.17 170.92 1552.66 172.006C1552.15 173.091 1551.41 174.054 1550.49 174.828C1548.52 176.577 1545.95 177.501 1543.31 177.405C1539.31 177.405 1535.53 175.411 1531.97 171.423L1527.59 176.362C1529.46 178.754 1531.88 180.673 1534.64 181.96C1537.44 183.299 1540.5 183.992 1543.6 183.985C1545.77 184.044 1547.92 183.667 1549.94 182.876C1551.95 182.085 1553.78 180.897 1555.32 179.383C1556.83 177.927 1558.02 176.179 1558.81 174.248C1559.61 172.316 1560 170.243 1559.95 168.156C1560.02 166.445 1559.71 164.74 1559.06 163.155" fill="black"/>
<path d="M1428.56 155.211C1428.56 162.634 1427.69 168.222 1425.95 171.975C1424.28 175.642 1421.53 178.722 1418.07 180.81C1413.99 182.906 1409.47 184 1404.88 184C1400.28 184 1395.76 182.906 1391.68 180.81C1388.18 178.721 1385.41 175.609 1383.76 171.898C1382.01 168.095 1381.23 162.818 1381.23 155.165H1387.9C1387.74 159.012 1388.15 162.862 1389.12 166.591C1390.03 169.783 1392.06 172.55 1394.83 174.398C1397.8 176.361 1401.32 177.363 1404.88 177.267C1408.39 177.375 1411.85 176.4 1414.78 174.475C1417.42 172.707 1419.39 170.124 1420.39 167.128C1421.08 165.058 1421.44 161.898 1421.44 155.165" fill="black"/>
<path d="M1515.08 155.18C1515.08 162.603 1514.2 168.197 1512.45 171.96C1510.79 175.624 1508.05 178.704 1504.59 180.794C1500.51 182.891 1495.99 183.985 1491.39 183.985C1486.8 183.985 1482.27 182.891 1478.19 180.794C1474.69 178.706 1471.92 175.594 1470.27 171.883C1468.52 168.079 1467.75 162.803 1467.75 155.149H1474.4C1474.24 158.992 1474.66 162.837 1475.62 166.561C1476.55 169.753 1478.57 172.521 1481.34 174.383C1484.31 176.346 1487.82 177.348 1491.39 177.251C1494.9 177.36 1498.36 176.384 1501.29 174.46C1503.93 172.694 1505.9 170.111 1506.91 167.113C1507.6 165.027 1507.94 161.867 1507.94 155.149" fill="black"/>
<path d="M1331.04 155.149H1324.03C1324.08 150.618 1323.36 146.111 1321.9 141.82C1321.12 139.55 1319.63 137.59 1317.64 136.237C1315.52 134.775 1312.98 134.033 1310.41 134.121C1308.22 134 1306.06 134.682 1304.34 136.038C1302.41 137.279 1300.94 139.109 1300.16 141.253C1299.32 143.415 1298.9 147.388 1298.9 153.155V155.088H1291.79V153.155C1291.79 146.427 1292.48 141.381 1293.87 138.016C1295.11 134.805 1297.32 132.055 1300.2 130.148C1303.72 128.207 1307.71 127.258 1311.74 127.403C1314.31 127.39 1316.86 127.912 1319.21 128.936C1321.43 129.847 1323.41 131.241 1325 133.016C1326.02 134.211 1326.87 135.537 1327.53 136.958C1328.2 135.569 1329.04 134.274 1330.05 133.108C1331.65 131.333 1333.63 129.939 1335.84 129.028C1338.2 128.003 1340.74 127.48 1343.32 127.495C1347.34 127.352 1351.33 128.301 1354.85 130.24C1357.72 132.15 1359.93 134.892 1361.17 138.093C1362.56 141.468 1363.27 146.514 1363.27 153.247V155.18H1356.13V153.247C1356.13 147.465 1355.72 143.508 1354.9 141.345C1354.1 139.204 1352.63 137.372 1350.71 136.115C1348.99 134.767 1346.82 134.091 1344.63 134.213C1342.06 134.121 1339.53 134.859 1337.42 136.314C1335.42 137.668 1333.92 139.634 1333.16 141.912C1331.68 146.169 1330.95 150.647 1331.01 155.149H1324.03" fill="black"/>
<path d="M1109.86 10.0156H1114.39C1116.21 10.0156 1117.61 10.2344 1118.59 10.6719C1119.57 11.099 1120.34 11.7604 1120.91 12.6562C1121.48 13.5521 1121.77 14.5469 1121.77 15.6406C1121.77 16.6615 1121.52 17.5938 1121.02 18.4375C1120.52 19.2708 1119.78 19.9479 1118.81 20.4688C1120.01 20.875 1120.93 21.3542 1121.58 21.9062C1122.22 22.4479 1122.72 23.1094 1123.08 23.8906C1123.44 24.6615 1123.62 25.5 1123.62 26.4062C1123.62 28.25 1122.95 29.8125 1121.59 31.0938C1120.25 32.3646 1118.44 33 1116.17 33H1109.86V10.0156ZM1112.11 12.2656V19.625H1113.42C1115.02 19.625 1116.19 19.4792 1116.94 19.1875C1117.69 18.8854 1118.28 18.4167 1118.72 17.7812C1119.16 17.1354 1119.38 16.4219 1119.38 15.6406C1119.38 14.5885 1119.01 13.7656 1118.27 13.1719C1117.54 12.5677 1116.37 12.2656 1114.77 12.2656H1112.11ZM1112.11 21.9375V30.75H1114.95C1116.63 30.75 1117.86 30.5885 1118.64 30.2656C1119.42 29.9323 1120.05 29.4167 1120.52 28.7188C1120.99 28.0208 1121.23 27.2656 1121.23 26.4531C1121.23 25.4323 1120.9 24.5417 1120.23 23.7812C1119.57 23.0208 1118.65 22.5 1117.48 22.2188C1116.7 22.0312 1115.34 21.9375 1113.41 21.9375H1112.11ZM1128.48 9.4375H1130.67V33H1128.48V9.4375ZM1153.16 16V33H1151V30.0781C1150.08 31.1927 1149.05 32.0312 1147.91 32.5938C1146.77 33.1562 1145.53 33.4375 1144.17 33.4375C1141.77 33.4375 1139.71 32.5677 1138 30.8281C1136.3 29.0781 1135.45 26.9531 1135.45 24.4531C1135.45 22.0052 1136.31 19.9115 1138.03 18.1719C1139.75 16.4323 1141.82 15.5625 1144.23 15.5625C1145.63 15.5625 1146.89 15.8594 1148.02 16.4531C1149.15 17.0469 1150.15 17.9375 1151 19.125V16H1153.16ZM1144.41 17.6719C1143.19 17.6719 1142.06 17.974 1141.03 18.5781C1140 19.1719 1139.18 20.0104 1138.56 21.0938C1137.96 22.1771 1137.66 23.3229 1137.66 24.5312C1137.66 25.7292 1137.96 26.875 1138.58 27.9688C1139.19 29.0625 1140.02 29.9167 1141.05 30.5312C1142.09 31.1354 1143.2 31.4375 1144.39 31.4375C1145.59 31.4375 1146.72 31.1354 1147.8 30.5312C1148.87 29.9271 1149.69 29.1094 1150.27 28.0781C1150.85 27.0469 1151.14 25.8854 1151.14 24.5938C1151.14 22.625 1150.49 20.9792 1149.19 19.6562C1147.9 18.3333 1146.3 17.6719 1144.41 17.6719ZM1175.59 19.5312L1173.86 20.6094C1172.36 18.6198 1170.31 17.625 1167.72 17.625C1165.65 17.625 1163.92 18.2917 1162.55 19.625C1161.18 20.9583 1160.5 22.5781 1160.5 24.4844C1160.5 25.724 1160.81 26.8906 1161.44 27.9844C1162.07 29.0781 1162.94 29.9271 1164.03 30.5312C1165.14 31.1354 1166.37 31.4375 1167.73 31.4375C1170.23 31.4375 1172.28 30.4427 1173.86 28.4531L1175.59 29.5938C1174.78 30.8125 1173.69 31.7604 1172.31 32.4375C1170.95 33.1042 1169.39 33.4375 1167.64 33.4375C1164.95 33.4375 1162.72 32.5833 1160.95 30.875C1159.18 29.1667 1158.3 27.0885 1158.3 24.6406C1158.3 22.9948 1158.71 21.4688 1159.53 20.0625C1160.36 18.6458 1161.51 17.5417 1162.95 16.75C1164.4 15.9583 1166.02 15.5625 1167.81 15.5625C1168.94 15.5625 1170.02 15.7344 1171.06 16.0781C1172.11 16.4219 1173.01 16.8698 1173.73 17.4219C1174.46 17.974 1175.08 18.6771 1175.59 19.5312ZM1180.8 9.4375H1183V22.8438L1190.86 16H1194.08L1184.75 24.1094L1194.62 33H1191.53L1183 25.3594V33H1180.8V9.4375ZM1225.5 24.5L1227.06 26.1562C1226.06 27.0417 1225.16 27.8073 1224.36 28.4531C1224.89 29.0156 1225.66 29.8021 1226.66 30.8125C1227.45 31.6042 1228.13 32.3333 1228.7 33H1225.5L1222.55 29.9219C1220.57 31.4219 1218.98 32.4062 1217.78 32.875C1216.58 33.3438 1215.32 33.5781 1213.98 33.5781C1212.21 33.5781 1210.79 33.0729 1209.72 32.0625C1208.65 31.0417 1208.11 29.7708 1208.11 28.25C1208.11 27.1042 1208.47 25.9583 1209.19 24.8125C1209.92 23.6562 1211.4 22.1979 1213.62 20.4375C1212.36 18.9167 1211.55 17.7969 1211.19 17.0781C1210.83 16.349 1210.66 15.6562 1210.66 15C1210.66 13.8542 1211.1 12.9062 1211.98 12.1562C1213.01 11.2812 1214.28 10.8438 1215.8 10.8438C1216.76 10.8438 1217.63 11.0365 1218.42 11.4219C1219.21 11.8073 1219.82 12.3281 1220.23 12.9844C1220.65 13.6302 1220.86 14.3177 1220.86 15.0469C1220.86 15.8177 1220.59 16.6406 1220.05 17.5156C1219.51 18.3802 1218.44 19.4896 1216.84 20.8438L1220.33 24.5L1222.72 26.8906C1223.86 25.9323 1224.79 25.1354 1225.5 24.5ZM1215.42 19.125C1216.54 18.2604 1217.38 17.4115 1217.94 16.5781C1218.33 15.9844 1218.53 15.4583 1218.53 15C1218.53 14.4688 1218.27 14.0104 1217.75 13.625C1217.24 13.2396 1216.56 13.0469 1215.7 13.0469C1214.89 13.0469 1214.23 13.2448 1213.72 13.6406C1213.21 14.0365 1212.95 14.5052 1212.95 15.0469C1212.95 15.4635 1213.06 15.8542 1213.27 16.2188C1213.78 17.1042 1214.49 18.0729 1215.42 19.125ZM1215.14 22.1719C1213.19 23.6406 1211.92 24.8125 1211.31 25.6875C1210.71 26.5521 1210.41 27.3542 1210.41 28.0938C1210.41 28.9688 1210.78 29.7448 1211.52 30.4219C1212.26 31.0885 1213.16 31.4219 1214.23 31.4219C1215.05 31.4219 1215.84 31.2552 1216.62 30.9219C1217.85 30.3906 1219.31 29.526 1220.98 28.3281L1217.23 24.4844C1216.61 23.8281 1215.91 23.0573 1215.14 22.1719ZM1241.91 10.0156H1244.27L1248.94 26.5781L1255.53 10.0156H1256L1262.52 26.5781L1267.28 10.0156H1269.62L1263.03 33H1262.59L1255.78 15.6094L1248.83 33H1248.39L1241.91 10.0156ZM1274.56 9.4375H1276.75V19.0469C1277.64 17.8802 1278.61 17.0104 1279.67 16.4375C1280.73 15.8542 1281.89 15.5625 1283.12 15.5625C1284.4 15.5625 1285.52 15.8854 1286.5 16.5312C1287.49 17.1771 1288.22 18.0469 1288.69 19.1406C1289.16 20.224 1289.39 21.9271 1289.39 24.25V33H1287.2V24.8906C1287.2 22.9323 1287.12 21.625 1286.97 20.9688C1286.7 19.8438 1286.2 19 1285.48 18.4375C1284.78 17.8646 1283.84 17.5781 1282.69 17.5781C1281.36 17.5781 1280.18 18.0156 1279.12 18.8906C1278.08 19.7656 1277.4 20.849 1277.06 22.1406C1276.85 22.974 1276.75 24.5156 1276.75 26.7656V33H1274.56V9.4375ZM1295.86 9C1296.36 9 1296.79 9.17708 1297.14 9.53125C1297.49 9.88542 1297.67 10.3125 1297.67 10.8125C1297.67 11.3021 1297.49 11.724 1297.14 12.0781C1296.79 12.4323 1296.36 12.6094 1295.86 12.6094C1295.37 12.6094 1294.95 12.4323 1294.59 12.0781C1294.24 11.724 1294.06 11.3021 1294.06 10.8125C1294.06 10.3125 1294.24 9.88542 1294.59 9.53125C1294.95 9.17708 1295.37 9 1295.86 9ZM1294.77 16H1296.97V33H1294.77V16ZM1304.41 9.6875H1306.61V16H1310.08V17.875H1306.61V33H1304.41V17.875H1301.42V16H1304.41V9.6875ZM1328.66 27.3594L1330.5 28.3281C1329.9 29.5156 1329.2 30.474 1328.41 31.2031C1327.61 31.9323 1326.72 32.4896 1325.73 32.875C1324.74 33.25 1323.62 33.4375 1322.38 33.4375C1319.6 33.4375 1317.44 32.5312 1315.88 30.7188C1314.31 28.8958 1313.53 26.8385 1313.53 24.5469C1313.53 22.3906 1314.19 20.4688 1315.52 18.7812C1317.19 16.6354 1319.44 15.5625 1322.25 15.5625C1325.15 15.5625 1327.46 16.6615 1329.19 18.8594C1330.42 20.4115 1331.04 22.349 1331.06 24.6719H1315.78C1315.82 26.651 1316.45 28.276 1317.67 29.5469C1318.89 30.8073 1320.4 31.4375 1322.19 31.4375C1323.05 31.4375 1323.89 31.2865 1324.7 30.9844C1325.53 30.6823 1326.22 30.2812 1326.8 29.7812C1327.37 29.2812 1327.99 28.474 1328.66 27.3594ZM1328.66 22.7812C1328.36 21.6146 1327.94 20.6823 1327.38 19.9844C1326.82 19.2865 1326.09 18.724 1325.17 18.2969C1324.26 17.8698 1323.29 17.6562 1322.28 17.6562C1320.61 17.6562 1319.18 18.1927 1317.98 19.2656C1317.11 20.0469 1316.45 21.2188 1316 22.7812H1328.66Z" fill="black"/>
<rect x="500" y="260" width="507" height="167" fill="#07598C"/>
<path d="M583.084 380.954C575.089 381.202 567.318 378.302 561.465 372.886C558.744 370.366 556.586 367.307 555.128 363.907C553.67 360.507 552.947 356.841 553.003 353.146C552.978 348.037 554.349 343.017 556.972 338.621C559.535 334.211 563.276 330.59 567.781 328.16C572.475 325.616 577.753 324.321 583.1 324.403L583.007 330.937C579.979 330.841 576.963 331.351 574.138 332.437C571.313 333.522 568.736 335.161 566.561 337.256C564.455 339.219 562.785 341.597 561.658 344.239C560.531 346.88 559.971 349.725 560.014 352.594C560.006 356.486 561.045 360.309 563.025 363.668C564.972 367.063 567.833 369.851 571.287 371.72C574.896 373.663 578.948 374.651 583.053 374.589L583.084 380.954Z" fill="white"/>
<path d="M663.738 352.211C663.738 359.634 662.869 365.222 661.129 368.975C659.461 372.642 656.716 375.722 653.253 377.81C649.175 379.906 644.65 381 640.058 381C635.466 381 630.941 379.906 626.863 377.81C623.36 375.721 620.593 372.609 618.941 368.898C617.196 365.095 616.408 359.818 616.408 352.165H623.079C622.938 356.042 623.375 359.918 624.377 363.668C625.291 366.86 627.315 369.627 630.09 371.475C633.063 373.438 636.574 374.44 640.143 374.343C643.654 374.452 647.112 373.476 650.041 371.552C652.675 369.784 654.645 367.201 655.647 364.205C656.342 362.134 656.697 358.975 656.697 352.241" fill="white"/>
<path d="M838.018 305H844.998V379.62H838.018V305Z" fill="white"/>
<path d="M931.35 343.299C930.095 341.928 929.382 340.152 929.343 338.299C929.344 337.312 929.562 336.337 929.981 335.442C930.399 334.547 931.009 333.753 931.767 333.115C933.339 331.642 935.428 330.838 937.589 330.875C941.14 330.875 944.8 332.685 948.522 336.274L953 331.673C947.956 326.826 942.937 324.403 937.944 324.403C935.986 324.338 934.035 324.663 932.205 325.359C930.375 326.054 928.704 327.106 927.289 328.452C925.909 329.766 924.821 331.352 924.095 333.109C923.369 334.866 923.021 336.753 923.073 338.652C923.059 340.257 923.315 341.854 923.83 343.376L931.35 343.299ZM944.491 360.247C945.76 361.721 946.451 363.6 946.437 365.539C946.434 366.737 946.168 367.92 945.659 369.006C945.149 370.091 944.409 371.054 943.488 371.828C941.52 373.577 938.946 374.501 936.307 374.405C932.313 374.405 928.535 372.411 924.973 368.423L920.587 373.362C922.462 375.754 924.88 377.673 927.644 378.96C930.437 380.299 933.499 380.992 936.6 380.985C938.766 381.044 940.921 380.667 942.935 379.876C944.95 379.085 946.782 377.897 948.321 376.383C949.827 374.927 951.016 373.179 951.813 371.248C952.61 369.316 952.998 367.243 952.954 365.156C953.017 363.445 952.712 361.74 952.058 360.155" fill="white"/>
<path d="M821.557 352.211C821.557 359.634 820.687 365.222 818.947 368.975C817.279 372.642 814.534 375.722 811.072 377.81C806.993 379.906 802.468 381 797.876 381C793.284 381 788.759 379.906 784.681 377.81C781.179 375.721 778.412 372.609 776.759 368.898C775.014 365.095 774.227 359.818 774.227 352.165H780.898C780.739 356.012 781.15 359.862 782.118 363.591C783.032 366.783 785.056 369.55 787.831 371.398C790.804 373.361 794.316 374.363 797.884 374.267C801.395 374.375 804.853 373.4 807.782 371.475C810.416 369.707 812.386 367.124 813.388 364.128C814.083 362.058 814.438 358.898 814.438 352.165" fill="white"/>
<path d="M908.079 352.18C908.079 359.603 907.204 365.197 905.454 368.96C903.79 372.624 901.05 375.704 897.594 377.794C893.513 379.891 888.985 380.985 884.391 380.985C879.796 380.985 875.269 379.891 871.188 377.794C867.685 375.706 864.918 372.594 863.266 368.883C861.521 365.079 860.749 359.803 860.749 352.149H867.404C867.244 355.992 867.655 359.837 868.624 363.561C869.547 366.753 871.569 369.521 874.338 371.383C877.311 373.346 880.822 374.348 884.391 374.251C887.901 374.36 891.36 373.384 894.289 371.46C896.927 369.694 898.903 367.111 899.91 364.113C900.605 362.027 900.945 358.867 900.945 352.149" fill="white"/>
<path d="M724.04 352.149H717.029C717.084 347.618 716.363 343.111 714.898 338.82C714.124 336.55 712.628 334.59 710.636 333.237C708.52 331.775 705.985 331.033 703.409 331.121C701.218 331 699.059 331.682 697.34 333.038C695.412 334.279 693.943 336.109 693.156 338.253C692.322 340.415 691.905 344.388 691.905 350.155V352.088H684.786V350.155C684.786 343.427 685.481 338.381 686.871 335.016C688.109 331.805 690.321 329.055 693.202 327.148C696.724 325.207 700.712 324.258 704.737 324.403C707.309 324.39 709.855 324.912 712.211 325.936C714.426 326.847 716.405 328.241 718.002 330.016C719.02 331.211 719.872 332.537 720.534 333.958C721.197 332.569 722.043 331.274 723.051 330.108C724.648 328.333 726.628 326.939 728.842 326.028C731.198 325.003 733.744 324.48 736.316 324.495C740.341 324.352 744.329 325.301 747.852 327.24C750.72 329.15 752.925 331.892 754.167 335.093C755.557 338.468 756.267 343.514 756.267 350.247V352.18H749.133V350.247C749.133 344.465 748.716 340.508 747.898 338.345C747.098 336.204 745.632 334.372 743.713 333.115C741.985 331.767 739.822 331.091 737.629 331.213C735.06 331.121 732.53 331.859 730.417 333.314C728.419 334.668 726.922 336.634 726.155 338.912C724.679 343.169 723.953 347.647 724.009 352.149H717.029" fill="white"/>
<rect x="500" y="63" width="507" height="167" fill="white"/>
<path d="M583.084 183.954C575.089 184.202 567.318 181.302 561.465 175.886C558.744 173.366 556.586 170.307 555.128 166.907C553.67 163.507 552.947 159.841 553.003 156.146C552.978 151.037 554.349 146.017 556.972 141.621C559.535 137.211 563.276 133.59 567.781 131.16C572.475 128.616 577.753 127.321 583.1 127.403L583.007 133.937C579.979 133.841 576.963 134.351 574.138 135.437C571.313 136.522 568.736 138.161 566.561 140.256C564.455 142.219 562.785 144.597 561.658 147.239C560.531 149.88 559.971 152.725 560.014 155.594C560.006 159.486 561.045 163.309 563.025 166.668C564.972 170.063 567.833 172.851 571.287 174.72C574.896 176.663 578.948 177.651 583.053 177.589L583.084 183.954Z" fill="#07598C"/>
<path d="M663.738 155.211C663.738 162.634 662.869 168.222 661.129 171.975C659.461 175.642 656.716 178.722 653.253 180.81C649.175 182.906 644.65 184 640.058 184C635.466 184 630.941 182.906 626.863 180.81C623.36 178.721 620.593 175.609 618.941 171.898C617.196 168.095 616.408 162.818 616.408 155.165H623.079C622.938 159.042 623.375 162.918 624.377 166.668C625.291 169.86 627.315 172.627 630.09 174.475C633.063 176.438 636.574 177.44 640.143 177.343C643.654 177.452 647.112 176.476 650.041 174.552C652.675 172.784 654.645 170.201 655.647 167.205C656.342 165.134 656.697 161.975 656.697 155.241" fill="#07598C"/>
<path d="M838.018 108H844.998V182.62H838.018V108Z" fill="#07598C"/>
<path d="M931.35 146.299C930.095 144.928 929.382 143.152 929.343 141.299C929.344 140.312 929.562 139.337 929.981 138.442C930.399 137.547 931.009 136.753 931.767 136.115C933.339 134.642 935.428 133.838 937.589 133.875C941.14 133.875 944.8 135.685 948.522 139.274L953 134.673C947.956 129.826 942.937 127.403 937.944 127.403C935.986 127.338 934.035 127.663 932.205 128.359C930.375 129.054 928.704 130.106 927.289 131.452C925.909 132.766 924.821 134.352 924.095 136.109C923.369 137.866 923.021 139.753 923.073 141.652C923.059 143.257 923.315 144.854 923.83 146.376L931.35 146.299ZM944.491 163.247C945.76 164.721 946.451 166.6 946.437 168.539C946.434 169.737 946.168 170.92 945.659 172.006C945.149 173.091 944.409 174.054 943.488 174.828C941.52 176.577 938.946 177.501 936.307 177.405C932.313 177.405 928.535 175.411 924.973 171.423L920.587 176.362C922.462 178.754 924.88 180.673 927.644 181.96C930.437 183.299 933.499 183.992 936.6 183.985C938.766 184.044 940.921 183.667 942.935 182.876C944.95 182.085 946.782 180.897 948.321 179.383C949.827 177.927 951.016 176.179 951.813 174.248C952.61 172.316 952.998 170.243 952.954 168.156C953.017 166.445 952.712 164.74 952.058 163.155" fill="#07598C"/>
<path d="M821.557 155.211C821.557 162.634 820.687 168.222 818.947 171.975C817.279 175.642 814.534 178.722 811.072 180.81C806.993 182.906 802.468 184 797.876 184C793.284 184 788.759 182.906 784.681 180.81C781.179 178.721 778.412 175.609 776.759 171.898C775.014 168.095 774.227 162.818 774.227 155.165H780.898C780.739 159.012 781.15 162.862 782.118 166.591C783.032 169.783 785.056 172.55 787.831 174.398C790.804 176.361 794.316 177.363 797.884 177.267C801.395 177.375 804.853 176.4 807.782 174.475C810.416 172.707 812.386 170.124 813.388 167.128C814.083 165.058 814.438 161.898 814.438 155.165" fill="#07598C"/>
<path d="M908.079 155.18C908.079 162.603 907.204 168.197 905.454 171.96C903.79 175.624 901.05 178.704 897.594 180.794C893.513 182.891 888.985 183.985 884.391 183.985C879.796 183.985 875.269 182.891 871.188 180.794C867.685 178.706 864.918 175.594 863.266 171.883C861.521 168.079 860.749 162.803 860.749 155.149H867.404C867.244 158.992 867.655 162.837 868.624 166.561C869.547 169.753 871.569 172.521 874.338 174.383C877.311 176.346 880.822 177.348 884.391 177.251C887.901 177.36 891.36 176.384 894.289 174.46C896.927 172.694 898.903 170.111 899.91 167.113C900.605 165.027 900.945 161.867 900.945 155.149" fill="#07598C"/>
<path d="M724.04 155.149H717.029C717.084 150.618 716.363 146.111 714.898 141.82C714.124 139.55 712.628 137.59 710.636 136.237C708.52 134.775 705.985 134.033 703.409 134.121C701.218 134 699.059 134.682 697.34 136.038C695.412 137.279 693.943 139.109 693.156 141.253C692.322 143.415 691.905 147.388 691.905 153.155V155.088H684.786V153.155C684.786 146.427 685.481 141.381 686.871 138.016C688.109 134.805 690.321 132.055 693.202 130.148C696.724 128.207 700.712 127.258 704.737 127.403C707.309 127.39 709.855 127.912 712.211 128.936C714.426 129.847 716.405 131.241 718.002 133.016C719.02 134.211 719.872 135.537 720.534 136.958C721.197 135.569 722.043 134.274 723.051 133.108C724.648 131.333 726.628 129.939 728.842 129.028C731.198 128.003 733.744 127.48 736.316 127.495C740.341 127.352 744.329 128.301 747.852 130.24C750.72 132.15 752.925 134.892 754.167 138.093C755.557 141.468 756.267 146.514 756.267 153.247V155.18H749.133V153.247C749.133 147.465 748.716 143.508 747.898 141.345C747.098 139.204 745.632 137.372 743.713 136.115C741.985 134.767 739.822 134.091 737.629 134.213C735.06 134.121 732.53 134.859 730.417 136.314C728.419 137.668 726.922 139.634 726.155 141.912C724.679 146.169 723.953 150.647 724.009 155.149H717.029" fill="#07598C"/>
<path d="M502.812 33V10.0156H503.312L518.594 27.6094V10.0156H520.859V33H520.344L505.188 15.625V33H502.812ZM535.172 15.5625C537.786 15.5625 539.953 16.5104 541.672 18.4062C543.234 20.1354 544.016 22.1823 544.016 24.5469C544.016 26.9219 543.188 29 541.531 30.7812C539.885 32.5521 537.766 33.4375 535.172 33.4375C532.568 33.4375 530.438 32.5521 528.781 30.7812C527.135 29 526.312 26.9219 526.312 24.5469C526.312 22.1927 527.094 20.151 528.656 18.4219C530.375 16.5156 532.547 15.5625 535.172 15.5625ZM535.172 17.7031C533.359 17.7031 531.802 18.375 530.5 19.7188C529.198 21.0625 528.547 22.6875 528.547 24.5938C528.547 25.8229 528.844 26.9688 529.438 28.0312C530.031 29.0938 530.833 29.9167 531.844 30.5C532.854 31.0729 533.964 31.3594 535.172 31.3594C536.38 31.3594 537.49 31.0729 538.5 30.5C539.51 29.9167 540.312 29.0938 540.906 28.0312C541.5 26.9688 541.797 25.8229 541.797 24.5938C541.797 22.6875 541.141 21.0625 539.828 19.7188C538.526 18.375 536.974 17.7031 535.172 17.7031ZM548.266 16H550.5V18.4844C551.167 17.5052 551.87 16.776 552.609 16.2969C553.349 15.8073 554.12 15.5625 554.922 15.5625C555.526 15.5625 556.172 15.7552 556.859 16.1406L555.719 17.9844C555.26 17.7865 554.875 17.6875 554.562 17.6875C553.833 17.6875 553.13 17.9896 552.453 18.5938C551.776 19.1875 551.26 20.1146 550.906 21.375C550.635 22.3438 550.5 24.3021 550.5 27.25V33H548.266V16ZM560.609 16H562.781V18.9375C563.542 17.8542 564.323 17.0625 565.125 16.5625C566.229 15.8958 567.391 15.5625 568.609 15.5625C569.432 15.5625 570.214 15.724 570.953 16.0469C571.693 16.3698 572.297 16.8021 572.766 17.3438C573.234 17.875 573.641 18.6406 573.984 19.6406C574.714 18.3073 575.625 17.2969 576.719 16.6094C577.812 15.9115 578.99 15.5625 580.25 15.5625C581.427 15.5625 582.464 15.8594 583.359 16.4531C584.266 17.0469 584.938 17.875 585.375 18.9375C585.812 20 586.031 21.5938 586.031 23.7188V33H583.797V23.7188C583.797 21.8958 583.667 20.6458 583.406 19.9688C583.146 19.2812 582.698 18.7292 582.062 18.3125C581.438 17.8958 580.688 17.6875 579.812 17.6875C578.75 17.6875 577.776 18 576.891 18.625C576.016 19.25 575.375 20.0833 574.969 21.125C574.562 22.1667 574.359 23.9062 574.359 26.3438V33H572.188V24.2969C572.188 22.2448 572.057 20.8542 571.797 20.125C571.547 19.3854 571.104 18.7969 570.469 18.3594C569.833 17.9115 569.078 17.6875 568.203 17.6875C567.193 17.6875 566.245 17.9948 565.359 18.6094C564.484 19.2135 563.833 20.0312 563.406 21.0625C562.99 22.0938 562.781 23.6719 562.781 25.7969V33H560.609V16ZM608.594 16V33H606.438V30.0781C605.521 31.1927 604.49 32.0312 603.344 32.5938C602.208 33.1562 600.964 33.4375 599.609 33.4375C597.203 33.4375 595.146 32.5677 593.438 30.8281C591.74 29.0781 590.891 26.9531 590.891 24.4531C590.891 22.0052 591.75 19.9115 593.469 18.1719C595.188 16.4323 597.255 15.5625 599.672 15.5625C601.068 15.5625 602.328 15.8594 603.453 16.4531C604.589 17.0469 605.583 17.9375 606.438 19.125V16H608.594ZM599.844 17.6719C598.625 17.6719 597.5 17.974 596.469 18.5781C595.438 19.1719 594.615 20.0104 594 21.0938C593.396 22.1771 593.094 23.3229 593.094 24.5312C593.094 25.7292 593.401 26.875 594.016 27.9688C594.63 29.0625 595.453 29.9167 596.484 30.5312C597.526 31.1354 598.641 31.4375 599.828 31.4375C601.026 31.4375 602.161 31.1354 603.234 30.5312C604.307 29.9271 605.13 29.1094 605.703 28.0781C606.286 27.0469 606.578 25.8854 606.578 24.5938C606.578 22.625 605.927 20.9792 604.625 19.6562C603.333 18.3333 601.74 17.6719 599.844 17.6719ZM614.203 9.4375H616.391V33H614.203V9.4375ZM632.25 10.0156H634.547V23.8906C634.547 25.5365 634.578 26.5625 634.641 26.9688C634.755 27.875 635.021 28.6354 635.438 29.25C635.854 29.8542 636.495 30.3646 637.359 30.7812C638.224 31.1875 639.094 31.3906 639.969 31.3906C640.729 31.3906 641.458 31.2292 642.156 30.9062C642.854 30.5833 643.438 30.1354 643.906 29.5625C644.375 28.9896 644.719 28.2969 644.938 27.4844C645.094 26.901 645.172 25.7031 645.172 23.8906V10.0156H647.469V23.8906C647.469 25.9427 647.266 27.6042 646.859 28.875C646.464 30.1354 645.661 31.2344 644.453 32.1719C643.255 33.1094 641.802 33.5781 640.094 33.5781C638.24 33.5781 636.651 33.1354 635.328 32.25C634.005 31.3646 633.12 30.1927 632.672 28.7344C632.391 27.8385 632.25 26.224 632.25 23.8906V10.0156ZM662.328 17.8594L660.922 19.3125C659.755 18.1771 658.615 17.6094 657.5 17.6094C656.792 17.6094 656.182 17.8438 655.672 18.3125C655.172 18.7812 654.922 19.3281 654.922 19.9531C654.922 20.5052 655.13 21.0312 655.547 21.5312C655.964 22.0417 656.839 22.6406 658.172 23.3281C659.797 24.1719 660.901 24.9844 661.484 25.7656C662.057 26.5573 662.344 27.4479 662.344 28.4375C662.344 29.8333 661.854 31.0156 660.875 31.9844C659.896 32.9531 658.672 33.4375 657.203 33.4375C656.224 33.4375 655.286 33.224 654.391 32.7969C653.505 32.3698 652.771 31.7812 652.188 31.0312L653.562 29.4688C654.677 30.7292 655.859 31.3594 657.109 31.3594C657.984 31.3594 658.729 31.0781 659.344 30.5156C659.958 29.9531 660.266 29.2917 660.266 28.5312C660.266 27.9062 660.062 27.349 659.656 26.8594C659.25 26.3802 658.333 25.776 656.906 25.0469C655.375 24.2552 654.333 23.474 653.781 22.7031C653.229 21.9323 652.953 21.0521 652.953 20.0625C652.953 18.7708 653.391 17.6979 654.266 16.8438C655.151 15.9896 656.266 15.5625 657.609 15.5625C659.172 15.5625 660.745 16.3281 662.328 17.8594ZM684.156 16V33H682V30.0781C681.083 31.1927 680.052 32.0312 678.906 32.5938C677.771 33.1562 676.526 33.4375 675.172 33.4375C672.766 33.4375 670.708 32.5677 669 30.8281C667.302 29.0781 666.453 26.9531 666.453 24.4531C666.453 22.0052 667.312 19.9115 669.031 18.1719C670.75 16.4323 672.818 15.5625 675.234 15.5625C676.63 15.5625 677.891 15.8594 679.016 16.4531C680.151 17.0469 681.146 17.9375 682 19.125V16H684.156ZM675.406 17.6719C674.188 17.6719 673.062 17.974 672.031 18.5781C671 19.1719 670.177 20.0104 669.562 21.0938C668.958 22.1771 668.656 23.3229 668.656 24.5312C668.656 25.7292 668.964 26.875 669.578 27.9688C670.193 29.0625 671.016 29.9167 672.047 30.5312C673.089 31.1354 674.203 31.4375 675.391 31.4375C676.589 31.4375 677.724 31.1354 678.797 30.5312C679.87 29.9271 680.693 29.1094 681.266 28.0781C681.849 27.0469 682.141 25.8854 682.141 24.5938C682.141 22.625 681.49 20.9792 680.188 19.6562C678.896 18.3333 677.302 17.6719 675.406 17.6719ZM704.734 16H706.938V29.5469C706.938 31.9323 706.729 33.6771 706.312 34.7812C705.74 36.3438 704.745 37.5469 703.328 38.3906C701.911 39.2344 700.208 39.6562 698.219 39.6562C696.76 39.6562 695.448 39.4479 694.281 39.0312C693.125 38.625 692.182 38.0729 691.453 37.375C690.724 36.6875 690.052 35.6771 689.438 34.3438H691.812C692.458 35.4688 693.292 36.3021 694.312 36.8438C695.333 37.3854 696.599 37.6562 698.109 37.6562C699.599 37.6562 700.854 37.375 701.875 36.8125C702.906 36.2604 703.641 35.5625 704.078 34.7188C704.516 33.875 704.734 32.5156 704.734 30.6406V29.7656C703.911 30.8073 702.906 31.6094 701.719 32.1719C700.531 32.724 699.271 33 697.938 33C696.375 33 694.906 32.6146 693.531 31.8438C692.156 31.0625 691.094 30.0156 690.344 28.7031C689.594 27.3906 689.219 25.9479 689.219 24.375C689.219 22.8021 689.609 21.3385 690.391 19.9844C691.172 18.6198 692.25 17.5417 693.625 16.75C695.01 15.9583 696.469 15.5625 698 15.5625C699.271 15.5625 700.453 15.8281 701.547 16.3594C702.651 16.8802 703.714 17.7448 704.734 18.9531V16ZM698.281 17.6719C697.042 17.6719 695.891 17.974 694.828 18.5781C693.766 19.1719 692.932 20 692.328 21.0625C691.724 22.1146 691.422 23.2552 691.422 24.4844C691.422 26.349 692.047 27.8906 693.297 29.1094C694.547 30.3281 696.167 30.9375 698.156 30.9375C700.167 30.9375 701.781 30.3333 703 29.125C704.229 27.9167 704.844 26.3281 704.844 24.3594C704.844 23.0781 704.562 21.9375 704 20.9375C703.438 19.9271 702.641 19.1302 701.609 18.5469C700.578 17.9635 699.469 17.6719 698.281 17.6719ZM726.938 27.3594L728.781 28.3281C728.177 29.5156 727.479 30.474 726.688 31.2031C725.896 31.9323 725.005 32.4896 724.016 32.875C723.026 33.25 721.906 33.4375 720.656 33.4375C717.885 33.4375 715.719 32.5312 714.156 30.7188C712.594 28.8958 711.812 26.8385 711.812 24.5469C711.812 22.3906 712.474 20.4688 713.797 18.7812C715.474 16.6354 717.719 15.5625 720.531 15.5625C723.427 15.5625 725.74 16.6615 727.469 18.8594C728.698 20.4115 729.323 22.349 729.344 24.6719H714.062C714.104 26.651 714.734 28.276 715.953 29.5469C717.172 30.8073 718.677 31.4375 720.469 31.4375C721.333 31.4375 722.172 31.2865 722.984 30.9844C723.807 30.6823 724.505 30.2812 725.078 29.7812C725.651 29.2812 726.271 28.474 726.938 27.3594ZM726.938 22.7812C726.646 21.6146 726.219 20.6823 725.656 19.9844C725.104 19.2865 724.37 18.724 723.453 18.2969C722.536 17.8698 721.573 17.6562 720.562 17.6562C718.896 17.6562 717.464 18.1927 716.266 19.2656C715.391 20.0469 714.729 21.2188 714.281 22.7812H726.938Z" fill="black"/>
<path d="M5.59375 19.0312H10.2188V60.5625H27.875V65H5.59375V19.0312ZM51.5312 30.125C56.7604 30.125 61.0938 32.0208 64.5312 35.8125C67.6562 39.2708 69.2188 43.3646 69.2188 48.0938C69.2188 52.8438 67.5625 57 64.25 60.5625C60.9583 64.1042 56.7188 65.875 51.5312 65.875C46.3229 65.875 42.0625 64.1042 38.75 60.5625C35.4583 57 33.8125 52.8438 33.8125 48.0938C33.8125 43.3854 35.375 39.3021 38.5 35.8438C41.9375 32.0312 46.2812 30.125 51.5312 30.125ZM51.5312 34.4062C47.9062 34.4062 44.7917 35.75 42.1875 38.4375C39.5833 41.125 38.2812 44.375 38.2812 48.1875C38.2812 50.6458 38.875 52.9375 40.0625 55.0625C41.25 57.1875 42.8542 58.8333 44.875 60C46.8958 61.1458 49.1146 61.7188 51.5312 61.7188C53.9479 61.7188 56.1667 61.1458 58.1875 60C60.2083 58.8333 61.8125 57.1875 63 55.0625C64.1875 52.9375 64.7812 50.6458 64.7812 48.1875C64.7812 44.375 63.4688 41.125 60.8438 38.4375C58.2396 35.75 55.1354 34.4062 51.5312 34.4062ZM107.656 31H112.062V58.0938C112.062 62.8646 111.646 66.3542 110.812 68.5625C109.667 71.6875 107.677 74.0938 104.844 75.7812C102.01 77.4688 98.6042 78.3125 94.625 78.3125C91.7083 78.3125 89.0833 77.8958 86.75 77.0625C84.4375 76.25 82.5521 75.1458 81.0938 73.75C79.6354 72.375 78.2917 70.3542 77.0625 67.6875H81.8125C83.1042 69.9375 84.7708 71.6042 86.8125 72.6875C88.8542 73.7708 91.3854 74.3125 94.4062 74.3125C97.3854 74.3125 99.8958 73.75 101.938 72.625C104 71.5208 105.469 70.125 106.344 68.4375C107.219 66.75 107.656 64.0312 107.656 60.2812V58.5312C106.01 60.6146 104 62.2188 101.625 63.3438C99.25 64.4479 96.7292 65 94.0625 65C90.9375 65 88 64.2292 85.25 62.6875C82.5 61.125 80.375 59.0312 78.875 56.4062C77.375 53.7812 76.625 50.8958 76.625 47.75C76.625 44.6042 77.4062 41.6771 78.9688 38.9688C80.5312 36.2396 82.6875 34.0833 85.4375 32.5C88.2083 30.9167 91.125 30.125 94.1875 30.125C96.7292 30.125 99.0938 30.6562 101.281 31.7188C103.49 32.7604 105.615 34.4896 107.656 36.9062V31ZM94.75 34.3438C92.2708 34.3438 89.9688 34.9479 87.8438 36.1562C85.7188 37.3438 84.0521 39 82.8438 41.125C81.6354 43.2292 81.0312 45.5104 81.0312 47.9688C81.0312 51.6979 82.2812 54.7812 84.7812 57.2188C87.2812 59.6562 90.5208 60.875 94.5 60.875C98.5208 60.875 101.75 59.6667 104.188 57.25C106.646 54.8333 107.875 51.6562 107.875 47.7188C107.875 45.1562 107.312 42.875 106.188 40.875C105.062 38.8542 103.469 37.2604 101.406 36.0938C99.3438 34.9271 97.125 34.3438 94.75 34.3438ZM138.531 30.125C143.76 30.125 148.094 32.0208 151.531 35.8125C154.656 39.2708 156.219 43.3646 156.219 48.0938C156.219 52.8438 154.562 57 151.25 60.5625C147.958 64.1042 143.719 65.875 138.531 65.875C133.323 65.875 129.062 64.1042 125.75 60.5625C122.458 57 120.812 52.8438 120.812 48.0938C120.812 43.3854 122.375 39.3021 125.5 35.8438C128.938 32.0312 133.281 30.125 138.531 30.125ZM138.531 34.4062C134.906 34.4062 131.792 35.75 129.188 38.4375C126.583 41.125 125.281 44.375 125.281 48.1875C125.281 50.6458 125.875 52.9375 127.062 55.0625C128.25 57.1875 129.854 58.8333 131.875 60C133.896 61.1458 136.115 61.7188 138.531 61.7188C140.948 61.7188 143.167 61.1458 145.188 60C147.208 58.8333 148.812 57.1875 150 55.0625C151.188 52.9375 151.781 50.6458 151.781 48.1875C151.781 44.375 150.469 41.125 147.844 38.4375C145.24 35.75 142.135 34.4062 138.531 34.4062ZM182.469 34.7188L179.656 37.625C177.323 35.3542 175.042 34.2188 172.812 34.2188C171.396 34.2188 170.177 34.6875 169.156 35.625C168.156 36.5625 167.656 37.6562 167.656 38.9062C167.656 40.0104 168.073 41.0625 168.906 42.0625C169.74 43.0833 171.49 44.2812 174.156 45.6562C177.406 47.3438 179.615 48.9688 180.781 50.5312C181.927 52.1146 182.5 53.8958 182.5 55.875C182.5 58.6667 181.521 61.0312 179.562 62.9688C177.604 64.9062 175.156 65.875 172.219 65.875C170.26 65.875 168.385 65.4479 166.594 64.5938C164.823 63.7396 163.354 62.5625 162.188 61.0625L164.938 57.9375C167.167 60.4583 169.531 61.7188 172.031 61.7188C173.781 61.7188 175.271 61.1562 176.5 60.0312C177.729 58.9062 178.344 57.5833 178.344 56.0625C178.344 54.8125 177.938 53.6979 177.125 52.7188C176.312 51.7604 174.479 50.5521 171.625 49.0938C168.562 47.5104 166.479 45.9479 165.375 44.4062C164.271 42.8646 163.719 41.1042 163.719 39.125C163.719 36.5417 164.594 34.3958 166.344 32.6875C168.115 30.9792 170.344 30.125 173.031 30.125C176.156 30.125 179.302 31.6562 182.469 34.7188Z" fill="#868E96"/>
</svg>
